<?xml version="1.0" encoding="UTF-8"?>
<svg version="1.1" xmlns="http://www.w3.org/2000/svg" width="636" height="607">
<path d="M0 0 C209.88 0 419.76 0 636 0 C636 200.31 636 400.62 636 607 C426.12 607 216.24 607 0 607 C0 406.69 0 206.38 0 0 Z " fill="#230445" transform="translate(0,0)"/>
<path d="M0 0 C209.88 0 419.76 0 636 0 C636 200.31 636 400.62 636 607 C426.12 607 216.24 607 0 607 C0 406.69 0 206.38 0 0 Z M309 8 C308.34 8.825 307.68 9.65 307 10.5 C304.84273555 13.19658057 302.97470326 14.30016957 300 16 C295.91638791 18.9787848 295.91638791 18.9787848 293 23 C291.88625 23.66708984 291.88625 23.66708984 290.75 24.34765625 C287.80979879 26.11428283 285.51350731 28.10857838 283 30.4375 C280.46869935 32.77499794 277.96041011 35.03109831 275.25 37.16015625 C272.92813114 38.80264209 272.92813114 38.80264209 272 41 C270.33790988 42.00758831 268.6704394 43.00631494 267 44 C265.36299905 45.31428534 263.75783908 46.66924725 262.1875 48.0625 C261.39730469 48.75472656 260.60710937 49.44695313 259.79296875 50.16015625 C257.76735842 51.81055701 257.76735842 51.81055701 258 54 C257.43023437 54.24105469 256.86046875 54.48210938 256.2734375 54.73046875 C253.55716666 56.24728666 251.77554863 58.06762907 249.625 60.3125 C246.99359745 63.01784279 244.3944704 65.59158999 241.4375 67.9375 C240.633125 68.618125 239.82875 69.29875 239 70 C239 70.66 239 71.32 239 72 C238.01 72.33 237.02 72.66 236 73 C236 73.66 236 74.32 236 75 C235.34 75 234.68 75 234 75 C231.83333333 76.83333333 231.83333333 76.83333333 230 79 C230 79.66 230 80.32 230 81 C229.01 81.33 228.02 81.66 227 82 C225.35522325 83.66047001 225.35522325 83.66047001 223.75 85.6875 C215.05362803 95.78768883 215.05362803 95.78768883 210.921875 96.21484375 C207.38752328 95.85486348 203.90370349 95.09066652 201 93 C200.67 92.01 200.34 91.02 200 90 C196.23134752 87.72638745 196.23134752 87.72638745 192 87 C191.67 86.01 191.34 85.02 191 84 C189.01679982 82.96708324 187.01652194 81.9662501 185 81 C184.67 80.34 184.34 79.68 184 79 C181.69219431 77.90480507 181.69219431 77.90480507 179 76.9375 C174.08883827 75.08883827 174.08883827 75.08883827 173 74 C168.49621098 73.74016602 165.02552157 73.86884152 161 76 C160.67 76.66 160.34 77.32 160 78 C158.576875 78.556875 158.576875 78.556875 157.125 79.125 C151.46092928 81.43898011 146.83611912 85.32129619 142 89 C140.42798828 90.16789062 140.42798828 90.16789062 138.82421875 91.359375 C132.04013403 96.43800912 125.72411077 101.83818591 119.55859375 107.65234375 C117 110 117 110 114.66015625 111.69140625 C113.83837891 112.33916016 113.83837891 112.33916016 113 113 C113 113.66 113 114.32 113 115 C111.515 115.495 111.515 115.495 110 116 C108.38583056 117.55435472 108.38583056 117.55435472 106.8125 119.5 C106.19761719 120.22574219 105.58273438 120.95148438 104.94921875 121.69921875 C104.30597656 122.45847656 103.66273437 123.21773438 103 124 C101.71168214 125.44050204 100.41995871 126.8779649 99.125 128.3125 C96.0555404 131.77239966 93.03556984 135.26931693 90.0625 138.8125 C89.31097656 139.70582031 88.55945313 140.59914062 87.78515625 141.51953125 C86.1375643 143.80885486 85.40408652 145.24836325 85 148 C84.34 148 83.68 148 83 148 C81.2036052 150.26499049 81.2036052 150.26499049 79.4375 153.125 C78.81746094 154.07632813 78.19742188 155.02765625 77.55859375 156.0078125 C75.95465458 159.08705411 75.3716585 161.56852286 75 165 C74.13375 165.0309375 74.13375 165.0309375 73.25 165.0625 C70.27617704 166.3015929 69.28696973 168.22629851 67.81640625 171.01171875 C66.58391528 174.0133355 66.26338705 176.77350866 66 180 C65.34 180 64.68 180 64 180 C58.12662098 190.45435874 53.40673172 200.4904044 50 212 C47.37637334 220.55476372 47.37637334 220.55476372 44.9375 224.5 C43.0132935 227.68764775 42.26647332 230.62181871 41.59277344 234.26416016 C40.91972102 237.37051327 40.00476517 240.35542267 39.07421875 243.39453125 C36.95278804 250.75051795 35.76865276 258.0403283 34.8125 265.625 C34.64814453 266.84445312 34.48378906 268.06390625 34.31445312 269.3203125 C32.56794785 282.55698408 31.83669551 295.51700053 31.86962891 308.85375977 C31.87498287 311.42925929 31.86965684 314.00458392 31.86328125 316.58007812 C31.7538735 333.9894709 31.7538735 333.9894709 35 351 C35.44564223 354.53180528 35.68457259 358.07487427 35.9375 361.625 C36.60562842 370.00659435 37.70452715 377.88932925 40 386 C40.66 386 41.32 386 42 386 C42 387.32 42 388.64 42 390 C42.66 390 43.32 390 44 390 C44.33 393.96 44.66 397.92 45 402 C48.95843634 401.68876417 52.9167466 401.37604704 56.875 401.0625 C57.98359375 400.97548828 59.0921875 400.88847656 60.234375 400.79882812 C65.39014022 400.38939971 70.54499922 399.96961122 75.6953125 399.49609375 C76.48180176 399.42447021 77.26829102 399.35284668 78.07861328 399.27905273 C80.07938016 399.09115028 80.07938016 399.09115028 82 398 C83.35106043 397.85025698 84.70840465 397.75493546 86.06616211 397.6894989 C86.90095596 397.64839147 87.73574982 397.60728403 88.59584045 397.56493092 C89.50136154 397.52634307 90.40688263 397.48775522 91.33984375 397.44799805 C92.28117661 397.40595843 93.22250946 397.36391882 94.19236755 397.32060528 C103.98260918 396.91262009 113.76506613 396.8360722 123.5625 396.83203125 C125.45515974 396.82880135 127.34781924 396.82543613 129.24047852 396.82194519 C133.16976499 396.81602541 137.09902971 396.81409801 141.02832031 396.81469727 C145.99959588 396.81479898 150.97072897 396.80110411 155.94197083 396.78392506 C159.83907685 396.77267528 163.73614968 396.77078192 167.63327026 396.77130699 C169.4636179 396.77014795 171.29396702 396.76584736 173.1242981 396.75797462 C185.43891382 396.70991495 197.50237433 397.44864118 209.74499512 398.77054405 C214.02305736 399.20585434 218.31059616 399.47797797 222.6015625 399.75390625 C225 400 225 400 228 401 C229.95575563 401.22875179 231.91658017 401.41507955 233.87890625 401.578125 C235.70143921 401.73752563 235.70143921 401.73752563 237.56079102 401.90014648 C238.21169708 401.95661346 238.86260315 402.01308044 239.53323364 402.07125854 C251.35705989 403.11272257 263.12864898 404.42982095 274.87741089 406.12268066 C276.31111509 406.32924332 277.74529145 406.53256039 279.17996216 406.7322998 C287.64430253 407.91862254 295.72975593 409.65897208 303.92114258 412.12817383 C307.754646 413.21368971 311.34933048 413.73814856 315.3125 414.125 C319.41197808 414.53789707 323.36864794 415.04372978 327.375 415.98828125 C332.12021939 417.08976853 336.84236882 417.61567555 341.6875 418.0625 C346.82905468 418.55430088 351.91383442 419.07150774 357 420 C357 420.66 357 421.32 357 422 C363.27 422.33 369.54 422.66 376 423 C376 423.66 376 424.32 376 425 C384.25 425.33 392.5 425.66 401 426 C401 426.66 401 427.32 401 428 C411.02099097 428.96093373 420.96589778 429.13278105 431.01953125 429.09765625 C432.61520849 429.09578597 434.21088631 429.09436496 435.80656433 429.09336853 C439.96076099 429.08959134 444.11492143 429.07980338 448.269104 429.06866455 C452.5264029 429.05834593 456.78370777 429.05384876 461.04101562 429.04882812 C469.36069351 429.03817568 477.68034222 429.02115863 486 429 C464.57416389 434.6371897 464.57416389 434.6371897 455.25 435.3125 C454.43402344 435.38533203 453.61804688 435.45816406 452.77734375 435.53320312 C450.85276405 435.70301898 448.92653159 435.8539846 447 436 C447 436.66 447 437.32 447 438 C438.03466295 438.04720514 429.06937129 438.08230143 420.10393524 438.10362434 C415.93692002 438.11387951 411.76999223 438.12768441 407.60302734 438.15087891 C386.73370244 438.26386597 366.05142538 437.79997578 345.23712158 436.24047852 C341.70644422 435.9781924 338.17472022 435.74719257 334.64120483 435.52722168 C331.65592672 435.34124117 328.67181168 435.13831676 325.6875 434.9375 C324.47384766 434.85951172 323.26019531 434.78152344 322.00976562 434.70117188 C320.85541016 434.62318359 319.70105469 434.54519531 318.51171875 434.46484375 C317.51615967 434.399021 316.52060059 434.33319824 315.49487305 434.26538086 C313 434 313 434 310 433 C301.4182861 431.60000492 292.70841471 430.83448555 284.0625 429.9375 C283.39376862 429.86806812 282.72503723 429.79863625 282.03604126 429.72710037 C255.22686877 426.98051555 228.48883566 426.40780282 201.55228806 426.43501663 C198.52386765 426.43748058 195.49548988 426.4343987 192.46707153 426.43063354 C160.34443855 425.43647337 160.34443855 425.43647337 129 431 C127.3752344 431.21282313 125.74519652 431.38680032 124.11328125 431.53515625 C123.17548828 431.62216797 122.23769531 431.70917969 121.27148438 431.79882812 C120.29501953 431.88583984 119.31855469 431.97285156 118.3125 432.0625 C116.83040039 432.19881836 116.83040039 432.19881836 115.31835938 432.33789062 C112.87917852 432.56177679 110.43974413 432.78235239 108 433 C108 433.66 108 434.32 108 435 C107.42386963 435.03955811 106.84773926 435.07911621 106.25415039 435.11987305 C99.13659328 435.70895594 92.36899258 437.12668738 85.4375 438.8125 C84.36564453 439.06064453 83.29378906 439.30878906 82.18945312 439.56445312 C75.77465845 441.1063579 69.90932837 443.05616911 64 446 C64.60355408 449.85025879 65.76772603 452.86101159 67.5625 456.3125 C68.24505859 457.63701172 68.24505859 457.63701172 68.94140625 458.98828125 C69.29074219 459.65214844 69.64007813 460.31601562 70 461 C70.66 461 71.32 461 72 461 C72.061875 461.680625 72.12375 462.36125 72.1875 463.0625 C73.13052859 466.47191105 74.67961253 468.49897522 76.7890625 471.28515625 C78.27917134 473.39534263 79.18533709 475.55601126 80 478 C80.66 478 81.32 478 82 478 C82.28101563 478.57363281 82.56203125 479.14726562 82.8515625 479.73828125 C83.96550464 481.93206527 85.1261715 484.06767327 86.375 486.1875 C86.77460937 486.88230469 87.17421875 487.57710938 87.5859375 488.29296875 C89.28447602 490.34341442 90.40923555 490.63067826 93 491 C93.0309375 491.67804688 93.061875 492.35609375 93.09375 493.0546875 C94.4381694 497.42405056 97.3294582 499.922937 100.5 503.125 C104.87150765 507.65015664 109.05471444 512.1722614 112.9375 517.125 C116.29390964 521.34234742 119.53849624 524.02566416 124 527 C124.60328125 527.76957031 125.2065625 528.53914062 125.828125 529.33203125 C128.2377661 532.29207599 130.92129235 534.51801833 133.9375 536.8125 C134.52869629 537.26826416 135.11989258 537.72402832 135.72900391 538.19360352 C137.0609781 539.2186006 138.39509722 540.24081433 139.73095703 541.26074219 C142.2672742 543.20486996 144.78778262 545.16862604 147.30859375 547.1328125 C149.16360217 548.56830338 151.01906951 550.00320144 152.875 551.4375 C153.75406006 552.12368408 154.63312012 552.80986816 155.53881836 553.5168457 C163.49102059 560.09169015 163.49102059 560.09169015 173 563 C173 563.66 173 564.32 173 565 C174.65 565.33 176.3 565.66 178 566 C178 566.66 178 567.32 178 568 C179.65 568.33 181.3 568.66 183 569 C183 569.66 183 570.32 183 571 C184.03898438 571.36351562 185.07796875 571.72703125 186.1484375 572.1015625 C198.81732228 576.63432645 198.81732228 576.63432645 203.6875 579.9375 C215.02831519 587.24175385 229.95686977 590.28137165 243 593 C245.87871558 593.65095532 248.75208717 594.32394659 251.625 595 C252.34953369 595.16951172 253.07406738 595.33902344 253.82055664 595.51367188 C258.78460569 596.68474208 263.7051451 597.96966231 268.60546875 599.38671875 C281.34685841 602.65001104 295.19886908 602.16785782 308.28173828 602.13037109 C310.4990929 602.1250022 312.7162451 602.13036532 314.93359375 602.13671875 C330.93157823 602.14876809 346.27668195 600.87588397 362 597.9375 C363.56495064 597.65215149 365.13005459 597.36764251 366.6953125 597.08398438 C370.46536953 596.39893407 374.2332032 595.70274624 378 595 C378 594.34 378 593.68 378 593 C378.58265625 592.97421875 379.1653125 592.9484375 379.765625 592.921875 C387.05119003 592.4178422 396.64033707 591.35966293 402 586 C404.1015625 585.47265625 404.1015625 585.47265625 406.625 585.0625 C414.18324315 583.65681815 420.78887881 580.73926549 427.73828125 577.51171875 C430.20689088 576.36758471 432.68193323 575.2494984 435.16796875 574.14453125 C442.43292918 570.87461799 449.03176362 567.7147164 455.16015625 562.52734375 C458.42848233 559.81414737 462.06775772 557.88398129 465.9296875 556.1171875 C470.67148293 553.92157016 474.14978089 551.26731879 477.98828125 547.73046875 C479.96784871 546.02765635 481.94652145 544.70781464 484.1875 543.375 C487.6445579 541.3156198 490.22040632 538.92984199 493 536 C493.928125 535.278125 494.85625 534.55625 495.8125 533.8125 C496.8953125 532.9153125 496.8953125 532.9153125 498 532 C498 531.34 498 530.68 498 530 C498.5775 529.73832031 499.155 529.47664062 499.75 529.20703125 C505.56685203 526.08653251 509.96166121 521.11522914 514 516 C515.44403728 514.81268045 516.88892132 513.62624627 518.34765625 512.45703125 C522.45312125 508.8368458 525.97120103 504.54319846 529 500 C529.99 499.67 530.98 499.34 532 499 C533.06039384 497.3734566 533.06039384 497.3734566 533.875 495.375 C535.26572944 492.37792416 536.77775347 489.77694731 538.75 487.125 C541.19476824 484.37127696 541.19476824 484.37127696 541 482 C541.66 482 542.32 482 543 482 C544.59348861 480.05385473 544.59348861 480.05385473 546.125 477.625 C546.66382813 476.81289063 547.20265625 476.00078125 547.7578125 475.1640625 C549.1659413 473.12677974 549.1659413 473.12677974 549 471 C549.66 471 550.32 471 551 471 C551.33 469.35 551.66 467.7 552 466 C552.66 466 553.32 466 554 466 C556.51871843 461.68219697 558.85463183 457.33336698 561.05859375 452.84765625 C561.84715451 451.29998306 562.72624985 449.79889447 563.625 448.3125 C565.04403367 446.0655273 565.04403367 446.0655273 565.90234375 443.71875 C567.50134844 439.75822594 569.50599298 436.02292407 571.46484375 432.23046875 C572.90158486 429.20709751 574.10256964 426.19525575 575.24780273 423.05493164 C575.98240523 421.04806725 576.75258633 419.05889941 577.53515625 417.0703125 C580.09083632 410.50102508 582.4126425 404.20389642 583.578125 397.22265625 C584.15800498 394.16754784 585.15353975 391.31494054 586.17504883 388.38330078 C586.44728271 387.59681152 586.7195166 386.81032227 587 386 C587.36339478 384.95090454 587.36339478 384.95090454 587.73413086 383.88061523 C590.1033208 376.55457016 591.14256456 369.1822693 592.125 361.5625 C592.29386719 360.31662109 592.46273437 359.07074219 592.63671875 357.78710938 C593.11579979 354.1940016 593.56562185 350.5987619 594 347 C594.10820068 346.1450293 594.21640137 345.29005859 594.32788086 344.40917969 C595.43253688 334.36830632 595.2868794 324.21384654 595.3125 314.125 C595.31545074 313.10476746 595.31840149 312.08453491 595.32144165 311.03338623 C595.3326302 293.99372975 594.11528377 277.77682998 591 261 C590.71014021 259.31285934 590.4222098 257.62538541 590.13671875 255.9375 C588.4832656 244.95380298 588.4832656 244.95380298 584 235 C583.47265625 233.0546875 583.47265625 233.0546875 583.0625 230.875 C582.07325044 226.09877944 580.6039708 221.59962213 579 217 C578.43518994 215.31327178 577.87262157 213.62579095 577.3125 211.9375 C576.93544922 210.80634766 576.93544922 210.80634766 576.55078125 209.65234375 C576.36902344 209.10707031 576.18726563 208.56179687 576 208 C575.34 208 574.68 208 574 208 C573.9484375 207.36835938 573.896875 206.73671875 573.84375 206.0859375 C572.87591354 198.45322722 569.8942267 192.78222564 565.9765625 186.328125 C563.60134967 182.32875479 561.77610461 178.2922528 560 174 C559.34 174 558.68 174 558 174 C556.66666667 170.66666667 555.33333333 167.33333333 554 164 C553.34 164 552.68 164 552 164 C550.84871193 161.69742387 549.71659541 159.39454474 548.625 157.0625 C546.99709228 153.99452006 545.19713843 151.68539142 543 149 C541.17595944 146.38254269 539.3753971 143.75058611 537.5859375 141.109375 C536.1694488 138.89882683 536.1694488 138.89882683 534 138 C533.58492187 137.28714844 533.16984375 136.57429687 532.7421875 135.83984375 C530.58360697 132.32126069 527.96171352 129.54209466 525.125 126.5625 C524.08448425 125.4610064 523.0454094 124.35814981 522.0078125 123.25390625 C521.25032715 122.44783936 521.25032715 122.44783936 520.47753906 121.62548828 C519.02742344 120.03016941 517.66175462 118.38957639 516.3046875 116.71484375 C514.10494481 113.87111825 514.10494481 113.87111825 511 112 C510.01 112 509.02 112 508 112 C507.78730469 111.28714844 507.57460938 110.57429688 507.35546875 109.83984375 C505.65961805 106.28686549 503.23083566 104.09913871 500.3125 101.5625 C499.49458984 100.83474365 499.49458984 100.83474365 498.66015625 100.09228516 C497.11360511 98.7201813 495.55735041 97.35981196 494 96 C493.36449219 95.42894531 492.72898437 94.85789062 492.07421875 94.26953125 C485.73919766 88.6576143 478.88931884 82.97764275 471.4375 78.9375 C467.18875073 76.54275041 463.36952484 73.70369855 459.453125 70.8046875 C455.49565553 67.66017746 455.49565553 67.66017746 450.625 67.1875 C447.05410496 67.98787303 444.98704639 68.95623142 442 71 C438.79732265 73.02274359 435.61331346 74.65423588 432.11328125 76.10546875 C427.69997541 77.97357788 423.35768553 80.00633917 419 82 C419 82.66 419 83.32 419 84 C414.91159867 84.9911276 411.1968806 85.44966578 407 85 C404.25 82.5 404.25 82.5 402 80 C401.01 80 400.02 80 399 80 C398.6596875 78.88625 398.6596875 78.88625 398.3125 77.75 C396.73336584 74.44133795 394.8945294 73.20535574 392 71 C390.64172029 69.35360035 389.30745749 67.68704193 388 66 C386.04190477 63.70710528 386.04190477 63.70710528 384 62 C383.01 62 382.02 62 381 62 C380.64615234 61.13568359 380.64615234 61.13568359 380.28515625 60.25390625 C378.7196108 57.50825359 376.86080999 55.9562767 374.4375 53.9375 C370.11004431 50.33013294 370.11004431 50.33013294 369 47 C367.50415084 45.69768672 367.50415084 45.69768672 365.6875 44.5625 C362.79115689 42.5866546 360.44833494 40.52252691 358 38 C356.08568808 36.28765677 354.14639597 34.6057761 352.20703125 32.921875 C349.9575345 30.96302119 347.72684705 28.98454763 345.5 27 C340.63787431 22.67162396 335.74239487 18.38233223 330.828125 14.11328125 C329.76851563 13.19095703 329.76851563 13.19095703 328.6875 12.25 C328.05199219 11.69828125 327.41648437 11.1465625 326.76171875 10.578125 C325.60517551 9.54210844 324.48051158 8.46913592 323.39453125 7.359375 C321.30723111 5.32469588 320.12240495 5.01088044 317.1875 4.75 C313.51363299 5.03814643 311.91307635 5.77686279 309 8 Z " fill="#FCFDFD" transform="translate(0,0)"/>
<path d="M0 0 C3.1021414 0 5.25934617 0.27819232 7.53515625 2.49609375 C8.65002748 3.8574967 9.7589014 5.22382263 10.86328125 6.59375 C13.45884479 9.51672467 16.29970938 11.95735497 19.3125 14.4375 C19.84053223 14.87441162 20.36856445 15.31132324 20.91259766 15.76147461 C22.88157141 17.36797675 24.71973329 18.85986665 27 20 C27.33 20.99 27.66 21.98 28 23 C29.65385233 24.34919532 31.321702 25.68133728 33 27 C33.495 27.680625 33.99 28.36125 34.5 29.0625 C36.35369841 31.45686044 38.40566087 32.45575052 41 34 C42.69442641 35.63843667 44.35563869 37.31132257 46 39 C57.83646385 51.95893156 57.83646385 51.95893156 72 62 C72.33 62.99 72.66 63.98 73 65 C73.825 65.495 74.65 65.99 75.5 66.5 C78 68 78 68 79 71 C80.6222454 72.70993434 82.29413425 74.37347684 84 76 C84.61875 76.7425 85.2375 77.485 85.875 78.25 C88.95746824 80.78850325 91.02406949 81 95 81 C97.12500135 80.11629537 99.06556385 79.06076203 101.06640625 77.92578125 C103.75431349 76.63884385 106.07504778 76.70750478 109 77 C109 76.34 109 75.68 109 75 C112.15603429 72.72710763 115.62070934 70.92005151 119 69 C119.92296875 68.44183594 120.8459375 67.88367188 121.796875 67.30859375 C127.10392342 64.19782384 132.63105604 61.03138977 139 62 C140.46875 63.31640625 140.46875 63.31640625 142 65 C143.4799079 66.02950115 144.98157364 67.02820713 146.5 68 C149.33325045 69.81328029 151.63050231 71.63050231 154 74 C154.94875 74.45375 155.8975 74.9075 156.875 75.375 C160.34565845 77.1797424 162.26376525 79.20896227 165 82 C166.10374449 83.02186236 167.21476896 84.03590394 168.33203125 85.04296875 C168.90244141 85.55923828 169.47285156 86.07550781 170.06054688 86.60742188 C171.24511879 87.67578161 172.43270834 88.74080345 173.62304688 89.80273438 C175.11915331 91.16205394 176.56435779 92.57696958 178 94 C178 94.66 178 95.32 178 96 C178.61875 96.061875 179.2375 96.12375 179.875 96.1875 C180.57625 96.455625 181.2775 96.72375 182 97 C182.66666667 98.66666667 183.33333333 100.33333333 184 102 C184.58910156 102.10828125 185.17820312 102.2165625 185.78515625 102.328125 C189.11689517 103.33881123 190.33911124 105.52973173 192.4375 108.25 C195.43068283 112.10209616 198.54952775 115.55543609 202 119 C202.350625 119.721875 202.70125 120.44375 203.0625 121.1875 C203.86118367 123.18263596 203.86118367 123.18263596 206 123.9375 C208 125 208 125 208.8828125 127.234375 C210.14987383 130.37101633 211.81868416 132.63152972 213.875 135.3125 C222 146.24431818 222 146.24431818 222 151 C222.66 151 223.32 151 224 151 C224.67119549 152.4562545 225.33681807 153.91507867 226 155.375 C226.37125 156.18710938 226.7425 156.99921875 227.125 157.8359375 C228 160 228 160 228 162 C228.66 162 229.32 162 230 162 C230.33773438 162.90363281 230.67546875 163.80726563 231.0234375 164.73828125 C231.46945312 165.91777344 231.91546875 167.09726563 232.375 168.3125 C232.81585937 169.48425781 233.25671875 170.65601563 233.7109375 171.86328125 C234.91489648 175.08553593 234.91489648 175.08553593 237 178 C237.48065993 179.65951984 237.95769953 181.32028443 238.40625 182.98876953 C239.74376132 187.51936915 241.66028516 191.86632052 243.43359375 196.24023438 C246.13872033 203.03788079 247.91178477 209.74523178 249 217 C249.66 217 250.32 217 251 217 C251.27263672 218.8871875 251.27263672 218.8871875 251.55078125 220.8125 C253.24491472 232.39969074 255.01067947 243.97383008 257.53244019 255.41584778 C257.97944592 257.88639986 258.12682465 260.12525671 258.12939453 262.6315918 C258.13412277 263.96404182 258.13412277 263.96404182 258.13894653 265.32341003 C258.1369223 266.27242691 258.13489807 267.22144379 258.1328125 268.19921875 C258.13376923 269.18944534 258.13472595 270.17967194 258.13571167 271.1999054 C258.13639124 273.2936713 258.13455251 275.38743933 258.13037109 277.48120117 C258.12504818 280.65874065 258.13030895 283.83613694 258.13671875 287.01367188 C258.13605737 289.05468781 258.13477498 291.09570365 258.1328125 293.13671875 C258.13483673 294.07561447 258.13686096 295.01451019 258.13894653 295.9818573 C258.11781318 302.04304599 257.7136297 307.98114636 257 314 C250.44807792 312.48478033 245.24413701 309.09042687 240 305 C240 304.34 240 303.68 240 303 C239.01 302.67 238.02 302.34 237 302 C233.18481848 296.95049505 233.18481848 296.95049505 232.5625 293.75 C232.376875 293.1725 232.19125 292.595 232 292 C231.2265625 291.72285156 230.453125 291.44570313 229.65625 291.16015625 C226.51130406 289.78655486 225.68836549 288.58935228 223.9375 285.6875 C222.25492352 282.98320396 220.6350432 280.54860606 218.625 278.0625 C217 276 217 276 217 274 C216.09894531 273.60035034 216.09894531 273.60035034 215.1796875 273.19262695 C212.94107142 271.96775693 211.75204358 270.85841356 210.125 268.91796875 C209.61453125 268.31533203 209.1040625 267.71269531 208.578125 267.09179688 C208.05734375 266.46337891 207.5365625 265.83496094 207 265.1875 C206.47921875 264.57068359 205.9584375 263.95386719 205.421875 263.31835938 C203.93710687 261.55425986 202.46762644 259.77836336 201 258 C200.21625 257.06800781 199.4325 256.13601563 198.625 255.17578125 C197 253 197 253 197 251 C196.01 250.67 195.02 250.34 194 250 C192.7890625 248.546875 192.7890625 248.546875 191.625 246.75 C189.37977494 243.44938472 186.86420967 240.79260443 184 238 C179 232.49315068 179 232.49315068 179 230 C178.01 229.67 177.02 229.34 176 229 C174.5703125 227.328125 174.5703125 227.328125 173.125 225.25 C171.35932577 222.79454149 169.73936352 220.7460465 167.5625 218.625 C164.48558516 215.47303846 162.12325205 212.03617778 159.6484375 208.40234375 C158.57631737 206.83989379 157.45777558 205.307983 156.2890625 203.81640625 C155 202 155 202 155 200 C154.01 199.67 153.02 199.34 152 199 C150.60546875 196.7421875 150.60546875 196.7421875 149.1875 193.875 C147.27849618 190.19574201 145.3898706 187.02918745 142.625 183.9375 C140 181 140 181 140 179 C139.01 178.67 138.02 178.34 137 178 C135.98063057 176.00980253 134.98537521 174.0072458 134 172 C131.4750711 168.25285914 128.8222696 164.80889936 125.59765625 161.63671875 C122.87581187 158.87394438 120.62506395 155.98644968 118.3125 152.875 C114.28966085 147.53797785 109.99256384 142.58419363 105.4375 137.6875 C102.99345469 134.99278337 100.70978944 132.2153618 98.4375 129.375 C94.89721779 124.98404927 91.11699944 121.01334419 87.0859375 117.07421875 C84.18164405 114.18624155 81.55110381 111.205233 79 108 C79 107.34 79 106.68 79 106 C74.39357399 107.41230886 72.19120873 109.64403062 69.0625 113.25 C68.10957269 114.32540595 67.15369589 115.39820355 66.1953125 116.46875 C65.68645508 117.03722656 65.17759766 117.60570312 64.65332031 118.19140625 C61.66525661 121.46009732 58.55793057 124.60821042 55.4375 127.75 C54.8297876 128.37036133 54.2220752 128.99072266 53.59594727 129.62988281 C52.10313793 131.12670678 50.55596314 132.5689373 49 134 C48.34 134 47.68 134 47 134 C47 134.66 47 135.32 47 136 C44.83351642 138.16648358 43.57817326 138.95663701 40.5 139.1875 C37.06640963 137.55654457 36.46967689 135.44207622 34.9609375 132.0625 C33.18558661 128.25199078 30.75637322 125.60509858 27.5 123 C25 121 25 121 23.0625 118.5625 C21.01156789 115.83340928 21.01156789 115.83340928 17.9375 113.5 C15.09201353 111.07830938 13.77312509 109.2238638 12 106 C11.278125 105.13375 10.55625 104.2675 9.8125 103.375 C8 101 8 101 8 98 C7.195625 97.773125 6.39125 97.54625 5.5625 97.3125 C4.716875 96.879375 3.87125 96.44625 3 96 C2.1875 93.375 2.1875 93.375 2 91 C0.68 91 -0.64 91 -2 91 C-2.39058594 91.89912109 -2.39058594 91.89912109 -2.7890625 92.81640625 C-4.08284251 95.14938374 -5.29468764 96.29777781 -7.375 97.9375 C-10.35538795 100.38215706 -12.60750124 102.96950157 -15 106 C-16.66666667 107.33333333 -18.33333333 108.66666667 -20 110 C-20.66 110.825 -21.32 111.65 -22 112.5 C-24.10319635 115.12899543 -26.37899543 116.90319635 -29 119 C-29.66 119.825 -30.32 120.65 -31 121.5 C-33.10319635 124.12899543 -35.37899543 125.90319635 -38 128 C-38.66 128.825 -39.32 129.65 -40 130.5 C-42.10319635 133.12899543 -44.37899543 134.90319635 -47 137 C-47.66 137.825 -48.32 138.65 -49 139.5 C-51 142 -51 142 -53.3125 143.8125 C-56.29928336 146.24360273 -58.60936857 148.92558607 -61.1015625 151.84765625 C-63.0496542 154.0562952 -65.08788181 156.12300554 -67.1875 158.1875 C-70.02714294 160.98345613 -72.53967916 163.86096996 -75 167 C-75.7425 167.721875 -76.485 168.44375 -77.25 169.1875 C-80.55583931 172.56847202 -83.36325968 176.23295006 -86.23046875 179.98828125 C-87.10638672 180.98408203 -87.10638672 180.98408203 -88 182 C-88.66 182 -89.32 182 -90 182 C-90.433125 182.86625 -90.433125 182.86625 -90.875 183.75 C-91.91666667 185.83333333 -92.95833333 187.91666667 -94 190 C-98.39232415 189.48325598 -100.61778932 187.98844713 -103.9375 185.125 C-107.5340507 182.11892777 -110.77371482 179.95059316 -115 178 C-115.33 177.34 -115.66 176.68 -116 176 C-116.70125 175.731875 -117.4025 175.46375 -118.125 175.1875 C-120.72421678 174.11391046 -122.26576875 173.08445586 -124.4375 171.375 C-126.868255 169.60861622 -128.10150694 168.97766847 -131.125 168.3125 C-134.46847354 169.11202628 -135.66519577 170.41549729 -137.62890625 173.19921875 C-139 175 -139 175 -141.28515625 177.28125 C-144.32606829 180.32653745 -147.09710334 183.52945037 -149.875 186.8125 C-150.94369072 188.06798054 -152.01269876 189.32319103 -153.08203125 190.578125 C-153.58943848 191.17431641 -154.0968457 191.77050781 -154.61962891 192.38476562 C-156.25011095 194.29266609 -157.90191193 196.18076824 -159.5625 198.0625 C-162.68240896 201.61487158 -165.751649 205.20925729 -168.8125 208.8125 C-169.29340088 209.37654541 -169.77430176 209.94059082 -170.26977539 210.52172852 C-172.32757935 212.95082156 -174.23171499 215.34757248 -176 218 C-176.66 218 -177.32 218 -178 218 C-178.26167969 218.57878906 -178.52335937 219.15757812 -178.79296875 219.75390625 C-182.38122591 226.43108382 -188.73709332 231.85063769 -194.1328125 237.05859375 C-197.70807216 240.55715642 -201.10765434 243.92269611 -203.9375 248.0625 C-204.618125 249.031875 -205.29875 250.00125 -206 251 C-206.66 251 -207.32 251 -208 251 C-208.32677734 251.80630859 -208.32677734 251.80630859 -208.66015625 252.62890625 C-210.46565258 255.82405573 -212.91654555 258.30479529 -215.4375 260.9375 C-218.76901023 264.41785563 -221.56815639 267.82277915 -224 272 C-224.78375 272.598125 -225.5675 273.19625 -226.375 273.8125 C-228.83909624 275.86591353 -229.86295722 277.23394423 -231.4375 279.9375 C-233.35239228 283.17854439 -235.28893562 285.22245907 -238.3203125 287.515625 C-241.35904289 290.20101464 -243.70034212 293.4927517 -246.16796875 296.6953125 C-249.33643582 300.68123056 -252.61446163 303.3504039 -257 306 C-257.99 306 -258.98 306 -260 306 C-261.57391936 302.85216128 -261.14188655 299.48250145 -261.1328125 296.02734375 C-261.13376923 295.23026505 -261.13472595 294.43318634 -261.13571167 293.61195374 C-261.13639317 291.91976849 -261.134541 290.22758064 -261.13037109 288.53540039 C-261.12507155 285.97210629 -261.13029137 283.40899139 -261.13671875 280.84570312 C-261.136057 279.19791629 -261.13477384 277.55012956 -261.1328125 275.90234375 C-261.13483673 275.14573959 -261.13686096 274.38913544 -261.13894653 273.60960388 C-261.11630786 268.34068889 -260.65198842 263.22918022 -260 258 C-259.34 258 -258.68 258 -258 258 C-258.02610352 257.23776123 -258.05220703 256.47552246 -258.07910156 255.69018555 C-258.24695419 246.84794875 -257.25225755 238.51417311 -255.75 229.8125 C-255.44255859 227.87987305 -255.44255859 227.87987305 -255.12890625 225.90820312 C-254.01471726 219.29397214 -252.64482446 213.24236714 -249.91870117 207.10009766 C-248.97905754 204.95212675 -248.25337452 202.80155198 -247.5625 200.5625 C-246.45118119 197.10708795 -245.05766141 193.90306357 -243.5 190.625 C-241.73767019 186.8688702 -240.44620137 183.27378143 -239.4375 179.25 C-238.25617113 174.56495709 -236.70143907 171.00858701 -234 167 C-233.34 166.67 -232.68 166.34 -232 166 C-231.23889719 164.08069726 -230.48551992 162.15741346 -229.796875 160.2109375 C-228.66742844 157.07727693 -227.33485988 154.05110829 -226 151 C-225.34 151 -224.68 151 -224 151 C-223.7525 150.13375 -223.505 149.2675 -223.25 148.375 C-221.47330532 143.57792437 -219.09693343 140.07017896 -215.4375 136.5 C-212.90244199 134.16407573 -212.90244199 134.16407573 -211.6875 131.28515625 C-209.70797882 127.43150507 -207.27783756 124.29259581 -204.5625 120.9375 C-204.08490234 120.33873047 -203.60730469 119.73996094 -203.11523438 119.12304688 C-202.18255561 117.95495948 -201.2460024 116.78995277 -200.30517578 115.62841797 C-199.10294627 114.12844213 -197.93822517 112.59860651 -196.77734375 111.06640625 C-196.19082031 110.38449219 -195.60429687 109.70257813 -195 109 C-194.34 109 -193.68 109 -193 109 C-192.773125 108.4225 -192.54625 107.845 -192.3125 107.25 C-191 105 -191 105 -188.6875 103.1875 C-185.82517736 101.07748473 -185.82517736 101.07748473 -183.875 97.8125 C-180.89852073 93.42759206 -176.90949429 90.46283309 -172.77734375 87.20703125 C-170.34713441 85.27585224 -168.04414863 83.2759355 -165.75 81.1875 C-163.34135417 79.04098606 -161.02740994 77.34213834 -158.1875 75.8125 C-154.9508879 74.30454654 -154.9508879 74.30454654 -153.625 71.8125 C-151.16230973 69.06565316 -148.42154079 69.32782742 -144.86328125 69.078125 C-144.24839844 69.05234375 -143.63351563 69.0265625 -143 69 C-142.67 69.99 -142.34 70.98 -142 72 C-140.14921284 72.57776172 -140.14921284 72.57776172 -138 73 C-135.859375 74.12109375 -135.859375 74.12109375 -133.75 75.4375 C-133.04359375 75.86933594 -132.3371875 76.30117187 -131.609375 76.74609375 C-130.81273437 77.36677734 -130.81273437 77.36677734 -130 78 C-130 78.66 -130 79.32 -130 80 C-128.35 80.33 -126.7 80.66 -125 81 C-125 81.66 -125 82.32 -125 83 C-124.2575 83.103125 -123.515 83.20625 -122.75 83.3125 C-119.77625741 84.05593565 -118.35839661 85.09806725 -116 87 C-115.319375 87.33 -114.63875 87.66 -113.9375 88 C-112 89 -112 89 -110.66796875 90.51171875 C-107.8940325 92.98682346 -105.29205772 92.83652771 -101.69140625 92.7421875 C-96.24192156 91.23942684 -93.35209892 86.27702992 -90 82 C-88.71231617 80.60173264 -87.40245416 79.22325966 -86.0625 77.875 C-85.51722656 77.31554687 -84.97195312 76.75609375 -84.41015625 76.1796875 C-83 75 -83 75 -81 75 C-80.67 74.01 -80.34 73.02 -80 72 C-79.34 72 -78.68 72 -78 72 C-78 71.34 -78 70.68 -78 70 C-76.35648543 68.63823078 -74.68477344 67.31037934 -73 66 C-70.53649043 63.60492125 -68.14352662 61.14826924 -65.75390625 58.6796875 C-64.94824219 57.85726562 -64.14257812 57.03484375 -63.3125 56.1875 C-62.54550781 55.39730469 -61.77851563 54.60710937 -60.98828125 53.79296875 C-59 52 -59 52 -57 52 C-56.67 51.01 -56.34 50.02 -56 49 C-55.34 49 -54.68 49 -54 49 C-53.67 48.01 -53.34 47.02 -53 46 C-50.890625 44.1328125 -50.890625 44.1328125 -48.25 42.125 C-45.33613884 39.86883893 -42.53765288 37.67523646 -40 35 C-39.01 34.01 -39.01 34.01 -38 33 C-37.34 33 -36.68 33 -36 33 C-36 32.34 -36 31.68 -36 31 C-34.30096977 29.48259024 -32.53927277 28.034872 -30.75 26.625 C-27.94686688 24.40770687 -25.26298803 22.2694248 -22.765625 19.7109375 C-21 18 -21 18 -19 18 C-19 17.34 -19 16.68 -19 16 C-17.34516392 14.50122497 -15.62409488 13.07511527 -13.875 11.6875 C-12.87339844 10.88828125 -11.87179687 10.0890625 -10.83984375 9.265625 C-9.90269531 8.51796875 -8.96554687 7.7703125 -8 7 C-6.80872738 5.9835717 -5.62020374 4.96388629 -4.4375 3.9375 C-2 2 -2 2 0 2 C0 1.34 0 0.68 0 0 Z " fill="#FCFCFC" transform="translate(315,30)"/>
<path d="M0 0 C3.36202939 1.42609159 5.23675579 3.14348515 7.5625 5.9375 C9.99975858 8.85108669 9.99975858 8.85108669 12.65625 11.55859375 C14 13 14 13 14.9375 16.125 C15.288125 17.07375 15.63875 18.0225 16 19 C16.60457031 19.12246094 17.20914063 19.24492187 17.83203125 19.37109375 C21.02593205 20.29761272 21.92719979 22.22277405 23.75 24.9375 C24.36359375 25.83339844 24.9771875 26.72929687 25.609375 27.65234375 C27 30 27 30 27 32 C27.66 32 28.32 32 29 32 C29.99 36.95 29.99 36.95 31 42 C31.66 42 32.32 42 33 42 C33.474375 43.11375 33.94875 44.2275 34.4375 45.375 C35.25306463 47.26710994 36.07856355 49.15712709 37 51 C41.07868643 50.49702297 42.58067502 48.52841951 45.125 45.4375 C46.37635068 43.92407399 47.66009358 42.43561402 49 41 C49.66 41 50.32 41 51 41 C51 40.34 51 39.68 51 39 C52.86328125 37.37890625 52.86328125 37.37890625 55.3125 35.5625 C58.63285199 33.09936075 58.63285199 33.09936075 61.63671875 30.27734375 C63 29 63 29 65.5 29 C68.986321 30.3945284 69.47958554 31.5445126 71 35 C71.78384522 37.68932533 72.49017779 40.39244954 73.1875 43.10546875 C74.18883442 46.67272263 75.53048767 50.01939887 76.94921875 53.4375 C78.11112483 56.27099586 79.19112916 59.12645652 80.25 62 C80.75273437 63.36125 80.75273437 63.36125 81.265625 64.75 C82 67 82 67 82 69 C82.66 69 83.32 69 84 69 C84.53109375 70.16917969 85.0621875 71.33835937 85.609375 72.54296875 C86.32255211 74.0913138 87.03611416 75.63948159 87.75 77.1875 C88.09804688 77.95642578 88.44609375 78.72535156 88.8046875 79.51757812 C90.80226552 83.82716774 92.88563029 87.36766144 96 91 C96.98414332 92.74606073 97.96807575 94.49225193 98.9453125 96.2421875 C102.41849738 102.03082896 107.8703759 107.93518795 114 111 C113.566875 109.88367188 113.13375 108.76734375 112.6875 107.6171875 C108.16557754 95.19700963 104.66763098 79.99710706 109 67 C115.84846521 69.82969552 120.18488099 77.43138898 123 84 C123.33 84.99 123.66 85.98 124 87 C124.66 87 125.32 87 126 87 C130 93.75 130 93.75 130 96 C130.66 96 131.32 96 132 96 C132.4021875 97.3921875 132.4021875 97.3921875 132.8125 98.8125 C134.00249326 102.00669243 134.67583743 102.73627665 137 105 C138.23353126 106.62703332 139.43893624 108.27554646 140.625 109.9375 C146.98056298 118.75439919 153.48861965 127.42856289 160.25 135.9375 C160.74532227 136.56430664 161.24064453 137.19111328 161.75097656 137.83691406 C165.57875423 142.62227969 169.61701539 146.88184581 174.38671875 150.74609375 C178.60411301 154.32044655 181.63272098 158.57199981 184.8125 163.0625 C186.04590777 164.7689287 187.28028598 166.47465637 188.515625 168.1796875 C189.11181641 169.00694336 189.70800781 169.83419922 190.32226562 170.68652344 C196.73458666 179.52865879 203.57807257 188.02993906 210.53540039 196.44604492 C219 206.74753712 219 206.74753712 219 211 C213.91913204 211.84681133 209.15171623 212.09038099 204 212 C204 212.66 204 213.32 204 214 C161.39351174 220.37740429 161.39351174 220.37740429 141.72021484 220.91503906 C139.64438527 220.9798738 137.56922667 221.06656614 135.49462891 221.16308594 C132.18576382 221.31044262 128.88081133 221.42308011 125.56994629 221.5038147 C123.6182649 221.56086978 121.66785501 221.65718413 119.71777344 221.75463867 C111.33109848 221.89412255 106.72525151 220.37977028 100.30322266 214.92553711 C97.35837823 212.46359223 94.58874259 211.27599737 91 210 C91 209.34 91 208.68 91 208 C90.278125 207.71125 89.55625 207.4225 88.8125 207.125 C86.20833333 206.08333333 83.60416667 205.04166667 81 204 C81 203.34 81 202.68 81 202 C79.02 201.67 77.04 201.34 75 201 C75.16371094 201.67417969 75.32742188 202.34835937 75.49609375 203.04296875 C76.0875358 206.51367906 76.09539046 209.79322124 76.0625 213.3125 C76.05347656 214.56675781 76.04445313 215.82101562 76.03515625 217.11328125 C76.02355469 218.06589844 76.01195312 219.01851562 76 220 C69.19060866 220.37674911 64.2060888 219.74276584 58 217 C57.12601562 216.67515625 56.25203125 216.3503125 55.3515625 216.015625 C54.45179688 215.68046875 53.55203125 215.3453125 52.625 215 C51.79226563 214.690625 50.95953125 214.38125 50.1015625 214.0625 C48 213 48 213 46 210 C39.51390583 206.8066276 31.90143786 206.37293645 24.80249023 205.73413086 C21.13505559 205.3801346 19.12515828 205.08343885 16 203 C16.90079429 193.79038673 18.62298571 186.18601909 23 178 C23.66 178 24.32 178 25 178 C25.2475 176.205625 25.2475 176.205625 25.5 174.375 C26.79515622 168.40971842 29.91805826 163.49315183 33.02734375 158.33203125 C34.8364958 155.2761764 36.43629961 152.18615252 38 149 C38.98387706 147.32376502 39.97862543 145.65365406 41 144 C40.67 143.67 40.34 143.34 40 143 C33.46341123 144.5352842 28.57923054 146.20612323 23 150 C17.14964876 152.53490441 11.30772156 154.93109374 5 156 C5 156.66 5 157.32 5 158 C1.12315913 159.19287411 -1.91621923 160 -6 160 C-6 160.66 -6 161.32 -6 162 C-6.7734375 162.31453125 -7.546875 162.6290625 -8.34375 162.953125 C-15.51392125 165.89920012 -15.51392125 165.89920012 -22.5 169.25 C-27.61455063 171.80727531 -31.26975407 172.11019704 -37 172 C-37 169.36 -37 166.72 -37 164 C-36.34 164 -35.68 164 -35 164 C-34.97421875 163.33613281 -34.9484375 162.67226563 -34.921875 161.98828125 C-34.55002808 156.19930079 -33.87442605 153.44419458 -30 149 C-29.12466436 146.74735899 -28.42822113 144.46979324 -27.71875 142.16015625 C-26.82921054 139.48670341 -25.6786205 137.2624885 -24 135 C-23.34 135 -22.68 135 -22 135 C-21.62875 133.741875 -21.2575 132.48375 -20.875 131.1875 C-19.25525149 126.26595645 -16.89834657 121.9516273 -14.3046875 117.48046875 C-13.14356296 115.27294155 -12.46529568 113.4342908 -12 111 C-11.34 111 -10.68 111 -10 111 C-9.505 109.515 -9.505 109.515 -9 108 C-5.38816956 104.62235308 -1.27876481 102.02628544 3.1875 99.9375 C6.91009195 98.15556161 9.22189301 96.11690053 12 93 C12.6909375 92.25363281 13.381875 91.50726563 14.09375 90.73828125 C25.46801883 78.66750403 25.46801883 78.66750403 28.56640625 63.03125 C28.04807617 57.00621661 24.82335874 52.14632945 21.75 47.08203125 C20 44 20 44 20 41 C19.34 41 18.68 41 18 41 C17.67 39.35 17.34 37.7 17 36 C16.34 36 15.68 36 15 36 C14.32591692 34.73308493 13.66099503 33.46129251 13 32.1875 C12.62875 31.47980469 12.2575 30.77210938 11.875 30.04296875 C11 28 11 28 11 25 C10.34 25 9.68 25 9 25 C8.43410156 23.85660156 7.86820312 22.71320313 7.28515625 21.53515625 C6.54437592 20.04421862 5.80348478 18.55333604 5.0625 17.0625 C4.68931641 16.30775391 4.31613281 15.55300781 3.93164062 14.77539062 C3.57392578 14.05673828 3.21621094 13.33808594 2.84765625 12.59765625 C2.51773682 11.93258057 2.18781738 11.26750488 1.84790039 10.58227539 C1.10022992 9.00380637 1.10022992 9.00380637 0 8 C-0.14115161 5.32941149 -0.04247107 2.67567762 0 0 Z " fill="#FBFAFA" transform="translate(322,155)"/>
<path d="M0 0 C1.14090088 0.00338379 2.28180176 0.00676758 3.45727539 0.01025391 C14.52425087 0.07785529 25.38448241 0.38931615 36.265625 2.58203125 C42.54725394 3.72489306 48.91116504 4.37738333 55.25 5.125 C55.25 5.785 55.25 6.445 55.25 7.125 C56.5803125 7.063125 56.5803125 7.063125 57.9375 7 C64.95341619 7 73.09794121 7.56249394 79.25 11.125 C79.25 11.785 79.25 12.445 79.25 13.125 C80.25417969 13.18558594 81.25835937 13.24617188 82.29296875 13.30859375 C90.95203244 13.8370263 99.60244347 14.42904939 108.25 15.125 C108.25 15.785 108.25 16.445 108.25 17.125 C113.7818164 17.149875 119.31359962 17.16794235 124.84545898 17.17993164 C126.72404549 17.18493432 128.60262815 17.19173856 130.48120117 17.20043945 C133.19450839 17.21268427 135.90776376 17.21826911 138.62109375 17.22265625 C139.44959335 17.22781754 140.27809296 17.23297882 141.13169861 17.23829651 C150.44774265 17.50345185 150.44774265 17.50345185 159.25 15.125 C161.24960012 15.085008 163.25047242 15.08153201 165.25 15.125 C165.25 15.785 165.25 16.445 165.25 17.125 C158.5 21.125 158.5 21.125 156.25 21.125 C156.25 21.785 156.25 22.445 156.25 23.125 C155.59 23.125 154.93 23.125 154.25 23.125 C154.25 23.785 154.25 24.445 154.25 25.125 C139.64997641 30.83412823 139.64997641 30.83412823 134.8515625 32.30078125 C132.86248455 32.93095459 130.90279726 33.65460108 128.9609375 34.41796875 C118.16080722 38.32935248 107.54255054 38.61872706 96.1875 38.625 C95.43012543 38.62921967 94.67275085 38.63343933 93.89242554 38.63778687 C82.72543942 38.6650937 72.17983382 37.38545105 61.25 35.125 C61.25 34.465 61.25 33.805 61.25 33.125 C59.3009375 32.939375 59.3009375 32.939375 57.3125 32.75 C54.20830643 32.45436252 51.24875384 31.91061988 48.21850586 31.19995117 C27.67779666 26.61658409 6.99132215 26.7347666 -13.92016602 26.91900635 C-17.86339317 26.95030672 -21.8066831 26.96352452 -25.75 26.97851562 C-33.41683101 27.01020112 -41.08336275 27.0610469 -48.75 27.125 C-48.75 27.785 -48.75 28.445 -48.75 29.125 C-52.73256105 29.70182702 -56.71611513 30.27118681 -60.70068359 30.83398438 C-62.05285621 31.02600126 -63.40475323 31.21997029 -64.75634766 31.41601562 C-71.79253834 32.43530119 -78.6330538 33.4154876 -85.75 33.125 C-85.75 33.785 -85.75 34.445 -85.75 35.125 C-92.06430992 37.47948844 -98.05994065 38.72825429 -104.73046875 39.65234375 C-107.1589812 40.03248606 -109.3537739 40.51003806 -111.6875 41.25 C-114.85403075 42.15472307 -117.47493652 42.28475919 -120.75 42.125 C-119.49641445 38.36424335 -118.04326113 37.64850869 -114.8125 35.4375 C-113.91660156 34.81488281 -113.02070313 34.19226563 -112.09765625 33.55078125 C-109.75 32.125 -109.75 32.125 -107.75 32.125 C-107.75 31.465 -107.75 30.805 -107.75 30.125 C-102.90939723 27.06257784 -99.45709064 25.59088495 -93.75 25.125 C-93.75 24.465 -93.75 23.805 -93.75 23.125 C-66.21731283 10.09131896 -66.21731283 10.09131896 -58.05078125 8.61328125 C-55.24044953 8.0168611 -52.59833507 7.10212952 -49.875 6.1875 C-33.89101188 1.15967275 -16.66274155 -0.0715192 0 0 Z " fill="#F8F8F8" transform="translate(280.75,466.875)"/>
<path d="M0 0 C0.99 0.33 1.98 0.66 3 1 C1.625 3.5 1.625 3.5 0 6 C-0.66 6 -1.32 6 -2 6 C-2.33 6.99 -2.66 7.98 -3 9 C-4.33333333 10.33333333 -5.66666667 11.66666667 -7 13 C-7.433125 14.0209375 -7.433125 14.0209375 -7.875 15.0625 C-9.5410603 17.93182607 -12.05870713 18.55818977 -15 20 C-16.70779973 21.62449243 -18.37550757 23.29220027 -20 25 C-24.64864865 29 -24.64864865 29 -27 29 C-27.226875 29.61875 -27.45375 30.2375 -27.6875 30.875 C-29.37929835 33.61410209 -30.99244161 34.05024472 -34 35 C-34 35.66 -34 36.32 -34 37 C-36.01171875 38.62109375 -36.01171875 38.62109375 -38.6875 40.4375 C-39.55761719 41.03433594 -40.42773438 41.63117187 -41.32421875 42.24609375 C-48.57683742 47 -48.57683742 47 -52 47 C-52 47.66 -52 48.32 -52 49 C-57.74744258 54.92108133 -65.41041063 57.31789159 -73 60 C-73.8971875 60.37382813 -74.794375 60.74765625 -75.71875 61.1328125 C-78.28439242 62.10810808 -80.27808304 62.15553811 -83 62 C-83 62.66 -83 63.32 -83 64 C-83.58523438 64.15855469 -84.17046875 64.31710937 -84.7734375 64.48046875 C-86.06121094 64.83044922 -86.06121094 64.83044922 -87.375 65.1875 C-88.37144531 65.45691406 -89.36789062 65.72632813 -90.39453125 66.00390625 C-93.06585289 66.74192035 -95.72692266 67.49991793 -98.38671875 68.27734375 C-99.15773926 68.49946533 -99.92875977 68.72158691 -100.72314453 68.95043945 C-102.24304907 69.38870873 -103.7610936 69.83349977 -105.27685547 70.28588867 C-115.38983152 73.1790049 -125.59819328 73.18649998 -136.04174805 73.18530273 C-138.19404391 73.1875067 -140.34583996 73.2057797 -142.49804688 73.22460938 C-143.88801911 73.2275414 -145.27799374 73.22952747 -146.66796875 73.23046875 C-147.90828857 73.23457764 -149.1486084 73.23868652 -150.42651367 73.24291992 C-154.19918808 72.98645951 -157.4027618 72.13318785 -161 71 C-163.17192118 70.71732822 -165.31093609 70.56994494 -167.49609375 70.44140625 C-170.43293179 69.92367973 -173.06709493 68.8878199 -175.83862305 67.80883789 C-179.39593111 66.47760988 -183.0294827 65.45248727 -186.6875 64.4375 C-187.46407959 64.22061523 -188.24065918 64.00373047 -189.04077148 63.78027344 C-194.896178 62.1924891 -200.66704822 61.11147962 -206.69140625 60.359375 C-209 60 -209 60 -210 59 C-211.71541812 58.64358838 -213.44211529 58.34110356 -215.171875 58.0625 C-216.22890625 57.88976562 -217.2859375 57.71703125 -218.375 57.5390625 C-219.48875 57.36117187 -220.6025 57.18328125 -221.75 57 C-223.93240176 56.64651239 -226.11469738 56.29236869 -228.296875 55.9375 C-229.75625488 55.70353516 -229.75625488 55.70353516 -231.24511719 55.46484375 C-233.03374885 55.1630399 -234.81751409 54.83015593 -236.59350586 54.46118164 C-238.82442569 54.03364714 -240.9415309 53.80465102 -243.20703125 53.68359375 C-244.33334961 53.62075195 -244.33334961 53.62075195 -245.48242188 53.55664062 C-246.63581055 53.49766602 -246.63581055 53.49766602 -247.8125 53.4375 C-248.99489258 53.37272461 -248.99489258 53.37272461 -250.20117188 53.30664062 C-252.13394215 53.20121679 -254.06695026 53.10016906 -256 53 C-255.6796875 51.109375 -255.6796875 51.109375 -255 49 C-251.79116175 47.04679411 -249.7794561 46 -246 46 C-246 45.34 -246 44.68 -246 44 C-224.46263966 37.05587564 -205.50365186 35.72282127 -183 36 C-182.16774902 36.00725098 -181.33549805 36.01450195 -180.47802734 36.02197266 C-169.5374471 36.17268343 -159.20400831 38.45953598 -148.56640625 40.84375 C-120.60884691 46.89331017 -90.0164313 42.50841557 -63.0625 33.875 C-59.3871099 32.69996822 -55.79883371 31.68560903 -52 31 C-52 30.34 -52 29.68 -52 29 C-51.3915625 28.87625 -50.783125 28.7525 -50.15625 28.625 C-41.76290013 26.65009415 -34.53643953 23.0183492 -26.96728516 19.01611328 C-25.61498338 18.3176422 -24.24891172 17.64540083 -22.87255859 16.99560547 C-18.85064648 15.09117473 -16.05151438 13.30902615 -13 10 C-11.14820259 8.59390741 -9.27186405 7.21967721 -7.375 5.875 C-3.51250804 3.14400693 -3.51250804 3.14400693 0 0 Z " fill="#F6F5F6" transform="translate(495,477)"/>
<path d="M0 0 C2.0625 1.1875 2.0625 1.1875 3 3 C2.81098542 7.34733545 1.64316461 10.54355398 -1 14 C-1.99 14 -2.98 14 -4 14 C-4 14.66 -4 15.32 -4 16 C-4.67546875 16.26554687 -5.3509375 16.53109375 -6.046875 16.8046875 C-6.93890625 17.15789062 -7.8309375 17.51109375 -8.75 17.875 C-9.63171875 18.22304687 -10.5134375 18.57109375 -11.421875 18.9296875 C-13.9615841 19.93715443 -13.9615841 19.93715443 -16.140625 21.1328125 C-18 22 -18 22 -21 22 C-21.06767578 22.90878906 -21.06767578 22.90878906 -21.13671875 23.8359375 C-22 26 -22 26 -24.58203125 27.4140625 C-25.64808594 27.81367188 -26.71414062 28.21328125 -27.8125 28.625 C-32.07842418 30.22477421 -32.07842418 30.22477421 -36.19921875 32.1484375 C-38 33 -38 33 -41 33 C-39.56438314 29.81293058 -37.79733671 27.37830895 -35.5 24.75 C-34.8915625 24.04359375 -34.283125 23.3371875 -33.65625 22.609375 C-32 21 -32 21 -30 21 C-29.67 20.01 -29.34 19.02 -29 18 C-28.34 18 -27.68 18 -27 18 C-26.67 17.01 -26.34 16.02 -26 15 C-25.34 15 -24.68 15 -24 15 C-23.67 14.01 -23.34 13.02 -23 12 C-22.34 12 -21.68 12 -21 12 C-20.67 11.01 -20.34 10.02 -20 9 C-19.34 9 -18.68 9 -18 9 C-17.7525 8.38125 -17.505 7.7625 -17.25 7.125 C-15.77229238 4.61289704 -14.56044823 4.23892656 -12 3 C-11.67 2.01 -11.34 1.02 -11 0 C-7.07177214 -1.30940929 -3.99685731 -0.92235169 0 0 Z " fill="#E3E0E7" transform="translate(191,233)"/>
<path d="M0 0 C4.37860934 0.26098426 8.75682567 0.52762981 13.13476562 0.79956055 C14.624579 0.89129382 16.11448904 0.98147093 17.60449219 1.07006836 C19.74441322 1.1975803 21.88392586 1.33065852 24.0234375 1.46484375 C25.95582275 1.58267212 25.95582275 1.58267212 27.92724609 1.70288086 C31 2 31 2 33 3 C36.58958019 3.37674241 40.20661897 3.43521209 43.8125 3.5625 C44.98200195 3.6049585 46.15150391 3.64741699 47.35644531 3.69116211 C69.55763907 4.37143297 91.79143551 4.08194699 114 4 C113.67 4.66 113.34 5.32 113 6 C103.44573783 6.02329573 93.89148562 6.04100215 84.33720112 6.05181217 C79.89951376 6.05700362 75.461846 6.06403234 71.02416992 6.07543945 C66.73179625 6.08640248 62.43944128 6.0923049 58.14705467 6.09487724 C56.51942844 6.09670755 54.89180309 6.10028094 53.26418495 6.10573006 C43.78998255 6.13615201 34.44195648 5.91480846 25 5 C25 4.34 25 3.68 25 3 C16.75 2.67 8.5 2.34 0 2 C0 1.34 0 0.68 0 0 Z " fill="#544070" transform="translate(376,423)"/>
<path d="M0 0 C0 3 0 3 -2.1875 5.4375 C-5 8 -5 8 -7.5625 10 C-10.12727462 12.10443046 -11.96008637 14.39735157 -14 17 C-14.99 17.495 -14.99 17.495 -16 18 C-16.41958984 18.72276123 -16.83917969 19.44552246 -17.27148438 20.19018555 C-19.3368385 23.54755286 -21.88469392 26.19031475 -24.65625 28.95703125 C-25.19979126 29.50485764 -25.74333252 30.05268402 -26.30334473 30.61711121 C-27.44724427 31.76672778 -28.59373838 32.91376791 -29.74267578 34.05834961 C-31.50316869 35.81566297 -33.24986906 37.58594289 -34.99609375 39.35742188 C-36.11116855 40.47476789 -37.22702704 41.59133248 -38.34375 42.70703125 C-38.86569946 43.23819046 -39.38764893 43.76934967 -39.92541504 44.31660461 C-43.6561763 48 -43.6561763 48 -47 48 C-47 48.66 -47 49.32 -47 50 C-47.99 50.495 -47.99 50.495 -49 51 C-49.33 51.99 -49.66 52.98 -50 54 C-52.5625 55.1875 -52.5625 55.1875 -55 56 C-54.21654285 54.82780457 -53.42297164 53.66236332 -52.625 52.5 C-51.96371094 51.52546875 -51.96371094 51.52546875 -51.2890625 50.53125 C-50.86367188 50.0259375 -50.43828125 49.520625 -50 49 C-49.34 49 -48.68 49 -48 49 C-47.67 48.01 -47.34 47.02 -47 46 C-46.34 46 -45.68 46 -45 46 C-44.67 45.01 -44.34 44.02 -44 43 C-43.34 43 -42.68 43 -42 43 C-41.67 42.01 -41.34 41.02 -41 40 C-40.34 40 -39.68 40 -39 40 C-38.67 39.01 -38.34 38.02 -38 37 C-37.34 37 -36.68 37 -36 37 C-35.67 36.01 -35.34 35.02 -35 34 C-34.34 34 -33.68 34 -33 34 C-32.67 33.01 -32.34 32.02 -32 31 C-31.34 31 -30.68 31 -30 31 C-29.67 30.01 -29.34 29.02 -29 28 C-28.34 28 -27.68 28 -27 28 C-26.67 27.01 -26.34 26.02 -26 25 C-25.34 25 -24.68 25 -24 25 C-23.67 24.01 -23.34 23.02 -23 22 C-22.34 22 -21.68 22 -21 22 C-20.505 20.515 -20.505 20.515 -20 19 C-19.34 19 -18.68 19 -18 19 C-17.505 17.515 -17.505 17.515 -17 16 C-16.34 16 -15.68 16 -15 16 C-14.67 15.01 -14.34 14.02 -14 13 C-13.34 13 -12.68 13 -12 13 C-11.67 12.01 -11.34 11.02 -11 10 C-10.34 10 -9.68 10 -9 10 C-8.67 9.01 -8.34 8.02 -8 7 C-7.34 7 -6.68 7 -6 7 C-5.67 6.01 -5.34 5.02 -5 4 C-3.37667033 2.61423077 -1.71275535 1.27358732 0 0 Z " fill="#473867" transform="translate(309,126)"/>
<path d="M0 0 C2.79233226 0.11558674 5.58347 0.24228067 8.375 0.375 C9.53708984 0.42140625 9.53708984 0.42140625 10.72265625 0.46875 C14.74558545 0.66823409 18.50682356 1.07032914 22.42578125 2.01367188 C28.97533155 3.35479507 35.43985852 3.24985339 42.1015625 3.1953125 C44.07798233 3.19106766 44.07798233 3.19106766 46.09432983 3.18673706 C49.56308871 3.17917444 53.0316747 3.1595913 56.50036621 3.1373291 C60.05360578 3.1167099 63.60687384 3.10770131 67.16015625 3.09765625 C74.10684095 3.07633681 81.05341213 3.04229233 88 3 C84.19542116 5.06494183 81.19160116 5.38469672 76.84375 5.6171875 C76.14270142 5.65472137 75.44165283 5.69225525 74.71936035 5.73092651 C67.3879431 6.09002504 60.05720232 6.15139958 52.71826172 6.13037109 C50.5009071 6.1250022 48.2837549 6.13036532 46.06640625 6.13671875 C33.58055721 6.14387204 20.88656761 6.12918389 8.625 3.5625 C7.40039062 3.31628906 6.17578125 3.07007813 4.9140625 2.81640625 C2 2 2 2 0 0 Z " fill="#706484" transform="translate(260,596)"/>
<path d="M0 0 C0.66 0 1.32 0 2 0 C1.9292627 1.06951904 1.85852539 2.13903809 1.78564453 3.2409668 C1.11414189 13.93743478 0.84237363 24.58983308 0.86962891 35.30639648 C0.87503466 37.8286733 0.86961556 40.35077506 0.86328125 42.87304688 C0.76395398 60.13511604 0.76395398 60.13511604 4 77 C4.36153953 80.14096121 4.50284253 83.27922037 4.625 86.4375 C4.66367187 87.26443359 4.70234375 88.09136719 4.7421875 88.94335938 C4.83553092 90.96191073 4.91880961 92.98092331 5 95 C4.34 94.67 3.68 94.34 3 94 C2.51342773 92.1809082 2.51342773 92.1809082 2.18359375 89.80078125 C2.05919922 88.91970703 1.93480469 88.03863281 1.80664062 87.13085938 C1.68482422 86.20080078 1.56300781 85.27074219 1.4375 84.3125 C1.31181641 83.43271484 1.18613281 82.55292969 1.05664062 81.64648438 C-0.8707676 67.58952279 -1.16063869 53.64972086 -1.13037109 39.48681641 C-1.12500986 36.50548214 -1.13034734 33.52429847 -1.13671875 30.54296875 C-1.13990823 20.31367625 -0.96178279 10.19183041 0 0 Z " fill="#A49EB0" transform="translate(32,274)"/>
<path d="M0 0 C2.60466543 0.30872329 5.20867691 0.62181723 7.8125 0.9375 C8.55048828 1.02451172 9.28847656 1.11152344 10.04882812 1.20117188 C13.16733121 1.58216546 16.01108122 2.00369374 19 3 C30.96763085 4.21699912 42.98639197 4.12327904 55 4.0625 C56.7578112 4.05746748 58.51562383 4.05290771 60.2734375 4.04882812 C64.51566106 4.03797851 68.75781411 4.02081386 73 4 C73 4.33 73 4.66 73 5 C48.2529541 9.50677909 24.23728639 6.71922222 0 1 C0 0.67 0 0.34 0 0 Z " fill="#6D5F81" transform="translate(328,514)"/>
<path d="M0 0 C5.61 0.33 11.22 0.66 17 1 C17 1.66 17 2.32 17 3 C22.5318164 3.024875 28.06359962 3.04294235 33.59545898 3.05493164 C35.47404549 3.05993432 37.35262815 3.06673856 39.23120117 3.07543945 C41.94450839 3.08768427 44.65776376 3.09326911 47.37109375 3.09765625 C48.19959335 3.10281754 49.02809296 3.10797882 49.88169861 3.11329651 C59.19774265 3.37845185 59.19774265 3.37845185 68 1 C69.99960012 0.960008 72.00047242 0.95653201 74 1 C74 1.66 74 2.32 74 3 C71.5 4.625 71.5 4.625 69 6 C69 5.34 69 4.68 69 4 C67.04187378 4.24121582 67.04187378 4.24121582 65.04418945 4.48730469 C60.44851616 4.9956987 55.91373644 5.17589043 51.29296875 5.203125 C50.49301987 5.21000336 49.69307098 5.21688171 48.86888123 5.22396851 C46.30837382 5.24101341 43.74806107 5.24741837 41.1875 5.25 C39.8839859 5.25250763 39.8839859 5.25250763 38.55413818 5.25506592 C12.86641998 5.2580347 12.86641998 5.2580347 1 2 C0.67 1.34 0.34 0.68 0 0 Z " fill="#827894" transform="translate(372,481)"/>
<path d="M0 0 C0.33 1.32 0.66 2.64 1 4 C1.66 4 2.32 4 3 4 C3.33 7.96 3.66 11.92 4 16 C5.711875 15.7834375 7.42375 15.566875 9.1875 15.34375 C11.45830182 15.06224564 13.72913693 14.78100981 16 14.5 C17.12535156 14.35691406 18.25070313 14.21382813 19.41015625 14.06640625 C25.323297 13.34023107 31.04263601 12.82478341 37 13 C37 13.33 37 13.66 37 14 C25.65955374 16.98531615 14.67127476 17.65948997 3 18 C2.80083984 17.04287109 2.80083984 17.04287109 2.59765625 16.06640625 C2.42105469 15.24011719 2.24445312 14.41382813 2.0625 13.5625 C1.88847656 12.73878906 1.71445312 11.91507812 1.53515625 11.06640625 C1.19247006 9.02338796 1.19247006 9.02338796 0 8 C-0.14115161 5.32941149 -0.04247107 2.67567762 0 0 Z " fill="#796B8B" transform="translate(41,386)"/>
<path d="M0 0 C0.33 0 0.66 0 1 0 C1.00586624 0.5593222 1.01173248 1.11864441 1.01777649 1.69491577 C1.08157787 7.50235216 1.16596184 13.30922753 1.26245117 19.11621094 C1.29576091 21.28508114 1.32377379 23.45403929 1.34643555 25.62304688 C1.37987055 28.73605938 1.43218013 31.8482614 1.48828125 34.9609375 C1.49786613 36.42193375 1.49786613 36.42193375 1.50764465 37.91244507 C1.52743881 38.81322784 1.54723297 39.71401062 1.56762695 40.64208984 C1.58428154 41.83455826 1.58428154 41.83455826 1.60127258 43.05111694 C1.8445901 45.4048234 1.8445901 45.4048234 5 47 C2.525 47.495 2.525 47.495 0 48 C-1.57391936 44.85216128 -1.14188655 41.48250145 -1.1328125 38.02734375 C-1.13376923 37.23026505 -1.13472595 36.43318634 -1.13571167 35.61195374 C-1.13639317 33.91976849 -1.134541 32.22758064 -1.13037109 30.53540039 C-1.12507155 27.97210629 -1.13029137 25.40899139 -1.13671875 22.84570312 C-1.136057 21.19791629 -1.13477384 19.55012956 -1.1328125 17.90234375 C-1.13483673 17.14573959 -1.13686096 16.38913544 -1.13894653 15.60960388 C-1.11630786 10.34068889 -0.65198842 5.22918022 0 0 Z " fill="#C6C3CB" transform="translate(55,288)"/>
<path d="M0 0 C31.16196735 0.52876311 31.16196735 0.52876311 44.4375 2.4375 C45.73917114 2.62082886 45.73917114 2.62082886 47.06713867 2.80786133 C49.05933379 3.12417086 51.03371154 3.54988577 53 4 C53.495 4.99 53.495 4.99 54 6 C51.22882696 5.85919445 48.45817359 5.71256882 45.6875 5.5625 C44.50897461 5.50352539 44.50897461 5.50352539 43.30664062 5.44335938 C42.54931641 5.40146484 41.79199219 5.35957031 41.01171875 5.31640625 C40.31522217 5.27974854 39.61872559 5.24309082 38.90112305 5.20532227 C37 5 37 5 34 4 C31.93456595 3.79368941 29.86437652 3.63361035 27.79296875 3.5 C26.56642578 3.4175 25.33988281 3.335 24.07617188 3.25 C22.79291016 3.1675 21.50964844 3.085 20.1875 3 C17.65998018 2.83602507 15.13262754 2.66944805 12.60546875 2.5 C11.48293701 2.4278125 10.36040527 2.355625 9.20385742 2.28125 C6.09476919 2.0083193 3.06986786 1.55620895 0 1 C0 0.67 0 0.34 0 0 Z " fill="#65567B" transform="translate(191,396)"/>
<path d="M0 0 C0.99 0.33 1.98 0.66 3 1 C1.625 3.5 1.625 3.5 0 6 C-0.66 6 -1.32 6 -2 6 C-2.33 6.99 -2.66 7.98 -3 9 C-4.33333333 10.33333333 -5.66666667 11.66666667 -7 13 C-7.33 13.721875 -7.66 14.44375 -8 15.1875 C-9 17 -9 17 -11.125 17.75 C-12.053125 17.87375 -12.053125 17.87375 -13 18 C-12.34 16.02 -11.68 14.04 -11 12 C-12.65 12.33 -14.3 12.66 -16 13 C-13.42915577 10.22000234 -10.51552512 8.13023428 -7.4375 5.9375 C-3.54408629 3.17456727 -3.54408629 3.17456727 0 0 Z " fill="#A89EB6" transform="translate(495,477)"/>
<path d="M0 0 C4.2323458 0.23918945 8.46400849 0.48781014 12.6953125 0.74462891 C14.13038645 0.8304633 15.56560857 0.91386061 17.00097656 0.99462891 C24.38604412 1.41177707 31.58898812 1.92789491 38.82763672 3.55419922 C42.25780442 4.2581199 45.62861633 4.43428816 49.125 4.625 C50.42695313 4.69976562 51.72890625 4.77453125 53.0703125 4.8515625 C54.52050781 4.92503906 54.52050781 4.92503906 56 5 C56 5.33 56 5.66 56 6 C45.60328698 6.1050173 35.35702803 6.02472362 25 5 C25 4.34 25 3.68 25 3 C16.75 2.67 8.5 2.34 0 2 C0 1.34 0 0.68 0 0 Z " fill="#9186A2" transform="translate(376,423)"/>
<path d="M0 0 C0.66 0.33 1.32 0.66 2 1 C1.67 1.99 1.34 2.98 1 4 C0.34 4 -0.32 4 -1 4 C-1.226875 4.556875 -1.45375 5.11375 -1.6875 5.6875 C-3.92538376 9.63043806 -6.38810145 12.53434042 -10.8125 13.8125 C-11.534375 13.874375 -12.25625 13.93625 -13 14 C-13.04125 14.5775 -13.0825 15.155 -13.125 15.75 C-14.43982541 19.13097963 -16.98034708 20.12781519 -20 22 C-21.79394446 23.62351109 -21.79394446 23.62351109 -23 25 C-23.66 24.67 -24.32 24.34 -25 24 C-23.71451591 22.66070495 -22.42141845 21.32871357 -21.125 20 C-20.40570313 19.2575 -19.68640625 18.515 -18.9453125 17.75 C-17 16 -17 16 -15 16 C-14.67 15.01 -14.34 14.02 -14 13 C-13.34 13 -12.68 13 -12 13 C-11.67 12.01 -11.34 11.02 -11 10 C-9.38526859 8.58430666 -7.70976598 7.236825 -6 5.9375 C-2.45831012 3.4236329 -2.45831012 3.4236329 0 0 Z " fill="#B9B6C4" transform="translate(273,66)"/>
<path d="M0 0 C1.6045556 0.14148989 3.20863767 0.28835686 4.8125 0.4375 C5.70582031 0.51871094 6.59914063 0.59992188 7.51953125 0.68359375 C10 1 10 1 13 2 C15.06362991 2.15029988 17.13123915 2.24844448 19.19921875 2.31640625 C21.01196289 2.37924805 21.01196289 2.37924805 22.86132812 2.44335938 C24.12396484 2.48267578 25.38660156 2.52199219 26.6875 2.5625 C28.59885742 2.62727539 28.59885742 2.62727539 30.54882812 2.69335938 C33.69910852 2.7995486 36.84946839 2.90159533 40 3 C40 3.66 40 4.32 40 5 C36.35418402 5.0293908 32.70839913 5.04692874 29.0625 5.0625 C28.04091797 5.07087891 27.01933594 5.07925781 25.96679688 5.08789062 C16.60220264 5.11780946 8.67627708 4.62826132 0 1 C0 0.67 0 0.34 0 0 Z " fill="#584C6F" transform="translate(346,502)"/>
<path d="M0 0 C0.309375 0.639375 0.61875 1.27875 0.9375 1.9375 C1.8345163 3.93610821 1.8345163 3.93610821 3 5 C3.21380858 6.3880854 3.37024849 7.78514471 3.5 9.18359375 C3.5825 10.02857422 3.665 10.87355469 3.75 11.74414062 C3.8325 12.63294922 3.915 13.52175781 4 14.4375 C4.16305673 16.18653822 4.32956071 17.93525951 4.5 19.68359375 C4.5721875 20.46275146 4.644375 21.24190918 4.71875 22.04467773 C4.9058182 24.07439946 4.9058182 24.07439946 6 26 C6.07116382 28.37402501 6.08409085 30.75000677 6.0625 33.125 C6.05347656 34.40632813 6.04445313 35.68765625 6.03515625 37.0078125 C6.02355469 37.99523437 6.01195312 38.98265625 6 40 C5.67 40 5.34 40 5 40 C4.82609741 38.70582153 4.82609741 38.70582153 4.64868164 37.38549805 C4.21675625 34.18156569 3.78223243 30.97799956 3.34594727 27.7746582 C3.157731 26.38873158 2.9705481 25.0026642 2.78442383 23.61645508 C2.51656101 21.62284142 2.24466097 19.62977152 1.97265625 17.63671875 C1.81031494 16.43748779 1.64797363 15.23825684 1.48071289 14.00268555 C1.07695449 10.9603927 1.07695449 10.9603927 0 8 C-0.12781786 5.32605036 -0.04391871 2.67904143 0 0 Z " fill="#A39BB0" transform="translate(589,250)"/>
<path d="M0 0 C0.495 1.98 0.495 1.98 1 4 C-5.85910857 5.98240132 -12.66900995 7.35297424 -19.75 8.1875 C-20.44601318 8.27112793 -21.14202637 8.35475586 -21.85913086 8.44091797 C-26.59654499 8.96237555 -31.23460439 9.06945083 -36 9 C-36 8.67 -36 8.34 -36 8 C-28.94546999 6.79556805 -22.16562789 5.71899498 -15 6 C-15 5.34 -15 4.68 -15 4 C-10.05 3.67 -5.1 3.34 0 3 C0 2.01 0 1.02 0 0 Z " fill="#827A95" transform="translate(541,363)"/>
<path d="M0 0 C0.54825439 0.05534912 1.09650879 0.11069824 1.66137695 0.16772461 C3.29227948 0.33216668 4.92322387 0.49619384 6.55419922 0.65991211 C8.39841765 0.84550924 10.24249342 1.03252925 12.08642578 1.22094727 C16.84742351 1.7034637 21.59980422 2.11871085 26.375 2.4375 C30.56663208 2.79395375 33.43293967 3.78263817 37 6 C33.12981965 7.43091035 30.13891943 6.57541214 26.1875 5.6875 C19.49788635 4.22901829 12.84989492 3.28084279 6.046875 2.52734375 C3 2 3 2 0 0 Z " fill="#8A8099" transform="translate(299,410)"/>
<path d="M0 0 C0.66 0.33 1.32 0.66 2 1 C1.67 1.99 1.34 2.98 1 4 C0.01 4 -0.98 4 -2 4 C-2.06445312 4.55171875 -2.12890625 5.1034375 -2.1953125 5.671875 C-3.34380636 8.99470188 -5.39189927 10.78849145 -7.875 13.25 C-8.75929687 14.14203125 -9.64359375 15.0340625 -10.5546875 15.953125 C-13 18 -13 18 -16 18 C-15.505 16.515 -15.505 16.515 -15 15 C-14.34 15 -13.68 15 -13 15 C-12.67 14.01 -12.34 13.02 -12 12 C-10.5625 10.3125 -10.5625 10.3125 -9 9 C-8.34 9 -7.68 9 -7 9 C-6.67 8.01 -6.34 7.02 -6 6 C-5.34 6 -4.68 6 -4 6 C-3.67 5.01 -3.34 4.02 -3 3 C-1.4375 1.3125 -1.4375 1.3125 0 0 Z " fill="#594C74" transform="translate(243,66)"/>
<path d="M0 0 C0.33 0.66 0.66 1.32 1 2 C-1.26176482 7.12666692 -5.6247172 11.57029114 -10 15 C-12.7578125 15.734375 -12.7578125 15.734375 -15 16 C-15 15.34 -15 14.68 -15 14 C-13.49609375 12.51953125 -13.49609375 12.51953125 -11.4375 10.8125 C-7.41324753 7.39798275 -3.67809995 3.78154651 0 0 Z " fill="#4C3D6E" transform="translate(377,150)"/>
<path d="M0 0 C0.33 1.32 0.66 2.64 1 4 C-2.75 7 -2.75 7 -5 7 C-5.2475 7.61875 -5.495 8.2375 -5.75 8.875 C-7.20628639 11.35068687 -8.37812506 11.95125002 -11 13 C-11 13.66 -11 14.32 -11 15 C-12.98 15.66 -14.96 16.32 -17 17 C-16.01 15.515 -16.01 15.515 -15 14 C-14.34 14 -13.68 14 -13 14 C-12.67 13.01 -12.34 12.02 -12 11 C-11.34 11 -10.68 11 -10 11 C-10 10.34 -10 9.68 -10 9 C-8.35648543 7.63823078 -6.68477344 6.31037934 -5 5 C-3.31471312 3.35216394 -1.64302953 1.68997323 0 0 Z " fill="#B9B6C4" transform="translate(247,91)"/>
<path d="M0 0 C0 3.65351863 -0.88942301 5.06026776 -3 8 C-4.32520503 8.68268138 -5.65812182 9.3507041 -7 10 C-7.6837045 11.32467746 -8.34964186 12.65863633 -9 14 C-11.125 15.75 -11.125 15.75 -13 17 C-13.66 16.67 -14.32 16.34 -15 16 C-13.625 14 -13.625 14 -12 12 C-11.34 12 -10.68 12 -10 12 C-9.67 11.01 -9.34 10.02 -9 9 C-8.34 9 -7.68 9 -7 9 C-6.67 8.01 -6.34 7.02 -6 6 C-4.37446717 4.29319053 -2.70884005 2.62339805 -1 1 C-0.67 0.67 -0.34 0.34 0 0 Z " fill="#B3ADC1" transform="translate(523,506)"/>
<path d="M0 0 C0 3 0 3 -2.1875 5.4375 C-5 8 -5 8 -7.5625 10 C-10.08422987 11.92812084 -10.08422987 11.92812084 -12 14.5 C-14.09424035 17.11780044 -16.32606386 18.99454789 -19 21 C-19.66 20.67 -20.32 20.34 -21 20 C-20.01 19.67 -19.02 19.34 -18 19 C-17.67 18.01 -17.34 17.02 -17 16 C-16.34 16 -15.68 16 -15 16 C-14.67 15.01 -14.34 14.02 -14 13 C-13.34 13 -12.68 13 -12 13 C-11.67 12.01 -11.34 11.02 -11 10 C-10.34 10 -9.68 10 -9 10 C-8.67 9.01 -8.34 8.02 -8 7 C-7.34 7 -6.68 7 -6 7 C-5.67 6.01 -5.34 5.02 -5 4 C-3.37667033 2.61423077 -1.71275535 1.27358732 0 0 Z " fill="#787393" transform="translate(309,126)"/>
<path d="M0 0 C0.33 0.66 0.66 1.32 1 2 C0.67 2.66 0.34 3.32 0 4 C-0.99 4.33 -1.98 4.66 -3 5 C-4.65637688 6.63044124 -4.65637688 6.63044124 -6.1875 8.5625 C-6.71730469 9.20316406 -7.24710938 9.84382813 -7.79296875 10.50390625 C-8.19128906 10.99761719 -8.58960938 11.49132812 -9 12 C-9.33 11.01 -9.66 10.02 -10 9 C-9.67 8.34 -9.34 7.68 -9 7 C-8.01 7 -7.02 7 -6 7 C-6 6.34 -6 5.68 -6 5 C-6.99 4.67 -7.98 4.34 -9 4 C-7.02579865 1.47740939 -6.03254358 1.0070192 -2.8125 0.3125 C-1.4203125 0.1578125 -1.4203125 0.1578125 0 0 Z " fill="#3B2857" transform="translate(532,495)"/>
<path d="M0 0 C0.33 0.66 0.66 1.32 1 2 C-2.63 1.67 -6.26 1.34 -10 1 C-10.33 2.32 -10.66 3.64 -11 5 C-13.5625 7.25 -13.5625 7.25 -16 9 C-16.66 8.34 -17.32 7.68 -18 7 C-16.71034824 5.62437146 -15.37310707 4.29233607 -14 3 C-13.34 3 -12.68 3 -12 3 C-11.67 2.01 -11.34 1.02 -11 0 C-6.88825414 -1.37058195 -4.26339405 -0.75640862 0 0 Z " fill="#B3ABBE" transform="translate(191,233)"/>
<path d="M0 0 C0.33 0.66 0.66 1.32 1 2 C0.67 2.99 0.34 3.98 0 5 C-0.66 5 -1.32 5 -2 5 C-2.2475 5.598125 -2.495 6.19625 -2.75 6.8125 C-4.20864875 9.36513531 -5.43626682 10.56732558 -8 12 C-10.25 11.6875 -10.25 11.6875 -12 11 C-10.71034824 9.62437146 -9.37310707 8.29233607 -8 7 C-7.34 7 -6.68 7 -6 7 C-6 6.34 -6 5.68 -6 5 C-4.04072937 3.2856382 -2.04119788 1.61594832 0 0 Z " fill="#BCBBC7" transform="translate(302,41)"/>
<path d="M0 0 C1.20220203 3.53094302 0.79532349 6.12898982 0.0625 9.75 C-0.13214844 10.73484375 -0.32679688 11.7196875 -0.52734375 12.734375 C-0.68332031 13.48203125 -0.83929687 14.2296875 -1 15 C-1.66 15 -2.32 15 -3 15 C-3.12375 16.299375 -3.2475 17.59875 -3.375 18.9375 C-3.5859375 21.15234375 -3.5859375 21.15234375 -4 23 C-4.66 23.33 -5.32 23.66 -6 24 C-4.95178809 16.71184423 -3.56560026 9.90512983 -1 3 C-0.67 2.01 -0.34 1.02 0 0 Z " fill="#ACA8B4" transform="translate(587,383)"/>
<path d="M0 0 C2.97 0.495 2.97 0.495 6 1 C4.68 1.33 3.36 1.66 2 2 C2 8.27 2 14.54 2 21 C-0.31 20.67 -2.62 20.34 -5 20 C-5 19.67 -5 19.34 -5 19 C-3.02 19 -1.04 19 1 19 C0.67 12.73 0.34 6.46 0 0 Z " fill="#675881" transform="translate(397,356)"/>
<path d="M0 0 C0 0.33 0 0.66 0 1 C-9.23161404 3.32520414 -17.46251851 4.4277608 -27 4 C-27 3.67 -27 3.34 -27 3 C-24.94921875 2.77213542 -22.8984375 2.54427083 -20.84765625 2.31640625 C-18.98859771 2.18113386 -18.98859771 2.18113386 -18 1 C-12.02527946 0.05662307 -6.03562907 -0.11177091 0 0 Z " fill="#B6B0BE" transform="translate(78,399)"/>
<path d="M0 0 C0.66 0.33 1.32 0.66 2 1 C-0.42209957 3.92404784 -2.29359197 4.49440472 -6 5.0625 C-9.48729883 5.60739044 -10.97945613 5.98630408 -14 8 C-16.1875 7.625 -16.1875 7.625 -18 7 C-15.03777889 4.48348345 -12.82461389 3.53801102 -9 2.9375 C-6.30994924 2.50692785 -4.24409017 2.12509621 -1.8125 0.87890625 C-1.214375 0.58886719 -0.61625 0.29882812 0 0 Z " fill="#7B6A90" transform="translate(416,581)"/>
<path d="M0 0 C0 0.66 0 1.32 0 2 C-2.5 3.625 -2.5 3.625 -5 5 C-5 4.34 -5 3.68 -5 3 C-13.415 3.495 -13.415 3.495 -22 4 C-22 3.67 -22 3.34 -22 3 C-20.51886719 2.80083984 -20.51886719 2.80083984 -19.0078125 2.59765625 C-17.72648437 2.42105469 -16.44515625 2.24445313 -15.125 2.0625 C-13.21074219 1.80146484 -13.21074219 1.80146484 -11.2578125 1.53515625 C-1.68890135 -0.03671525 -1.68890135 -0.03671525 0 0 Z " fill="#A195AF" transform="translate(446,482)"/>
<path d="M0 0 C0.66 0 1.32 0 2 0 C2 0.99 2 1.98 2 3 C3.75376953 2.98259766 3.75376953 2.98259766 5.54296875 2.96484375 C7.09114423 2.95546087 8.63932145 2.9463612 10.1875 2.9375 C11.34088867 2.92493164 11.34088867 2.92493164 12.51757812 2.91210938 C16.48526789 2.89508066 20.12571234 3.01395885 24 4 C24 4.33 24 4.66 24 5 C11.13 4.505 11.13 4.505 -2 4 C-1.34 2.68 -0.68 1.36 0 0 Z " fill="#897E9B" transform="translate(237,527)"/>
<path d="M0 0 C0.66 0 1.32 0 2 0 C2.33 2.97 2.66 5.94 3 9 C3.66 9 4.32 9 5 9 C5.36504603 10.58086048 5.71660506 12.16483907 6.0625 13.75 C6.25972656 14.63171875 6.45695313 15.5134375 6.66015625 16.421875 C6.99825872 18.98679028 6.81158635 20.57091639 6 23 C5.81824219 22.31035156 5.63648438 21.62070313 5.44921875 20.91015625 C3.99896547 15.48844012 2.44490186 10.15911084 0.55078125 4.875 C0 3 0 3 0 0 Z " fill="#A29AB0" transform="translate(578,214)"/>
<path d="M0 0 C0.66 0.33 1.32 0.66 2 1 C0.92319498 2.13125022 -0.16175635 3.25474919 -1.25 4.375 C-1.85328125 5.00148437 -2.4565625 5.62796875 -3.078125 6.2734375 C-4.98022578 7.98223535 -6.69920588 8.92629608 -9 10 C-10.70921589 11.5412312 -10.70921589 11.5412312 -12 13 C-12.66 12.67 -13.32 12.34 -14 12 C-13.01 11.67 -12.02 11.34 -11 11 C-10.67 10.01 -10.34 9.02 -10 8 C-9.34 8 -8.68 8 -8 8 C-7.67 7.01 -7.34 6.02 -7 5 C-6.34 5 -5.68 5 -5 5 C-4.67 4.01 -4.34 3.02 -4 2 C-2.0625 0.75 -2.0625 0.75 0 0 Z " fill="#4F426E" transform="translate(290,146)"/>
<path d="M0 0 C-2.3125 2.5 -2.3125 2.5 -5 5 C-8 5 -8 5 -10 4 C-10 3.01 -10 2.02 -10 1 C-6.21812119 -0.83691257 -4.05431692 -1.15837626 0 0 Z " fill="#291649" transform="translate(509,521)"/>
<path d="M0 0 C0.66 0.33 1.32 0.66 2 1 C-0.85714286 9.57142857 -0.85714286 9.57142857 -5 13 C-5.99 12.67 -6.98 12.34 -8 12 C-7.50628906 11.30132812 -7.01257813 10.60265625 -6.50390625 9.8828125 C-5.86324219 8.97273438 -5.22257813 8.06265625 -4.5625 7.125 C-3.92441406 6.22007812 -3.28632812 5.31515625 -2.62890625 4.3828125 C-1.00481862 2.12261419 -1.00481862 2.12261419 0 0 Z " fill="#AFAAB9" transform="translate(541,482)"/>
<path d="M0 0 C2.31 0 4.62 0 7 0 C7 0.99 7 1.98 7 3 C5.25 4.75 5.25 4.75 3 6 C0.75 5.6875 0.75 5.6875 -1 5 C-0.67 3.35 -0.34 1.7 0 0 Z " fill="#231540" transform="translate(487,532)"/>
<path d="M0 0 C0.66 0.33 1.32 0.66 2 1 C-0.68199752 4.67532994 -3.09064768 6.73669076 -7 9 C-7.99 10.485 -7.99 10.485 -9 12 C-10.32 11.67 -11.64 11.34 -13 11 C-8.71 7.37 -4.42 3.74 0 0 Z " fill="#B3B0BF" transform="translate(153,108)"/>
<path d="M0 0 C0.33 0.66 0.66 1.32 1 2 C0.67 2.99 0.34 3.98 0 5 C-0.66 5 -1.32 5 -2 5 C-2 7.64 -2 10.28 -2 13 C-0.35 13 1.3 13 3 13 C2.34 13.66 1.68 14.32 1 15 C-1.625 14.625 -1.625 14.625 -4 14 C-3.91231752 12.4156683 -3.80412671 10.83246433 -3.6875 9.25 C-3.60048828 7.92742187 -3.60048828 7.92742187 -3.51171875 6.578125 C-2.9358819 3.67696226 -1.92403852 2.20774393 0 0 Z " fill="#867C99" transform="translate(287,314)"/>
<path d="M0 0 C1.85649701 3.71299401 0.00499015 8.12443453 -1 12 C-1.88016543 14.42259125 -2.88601966 16.67076837 -4 19 C-5.52835982 15.94328036 -4.77871069 13.20201188 -4 10 C-2.78716673 6.61294122 -1.42819145 3.3014472 0 0 Z " fill="#A099AC" transform="translate(66,235)"/>
<path d="M0 0 C0.99 0.33 1.98 0.66 3 1 C1.625 3.5 1.625 3.5 0 6 C-0.66 6 -1.32 6 -2 6 C-2.33 6.99 -2.66 7.98 -3 9 C-3.66 8.34 -4.32 7.68 -5 7 C-5.66 6.67 -6.32 6.34 -7 6 C-5.90716423 4.96704564 -4.80029421 3.94892165 -3.6875 2.9375 C-3.07261719 2.36902344 -2.45773437 1.80054688 -1.82421875 1.21484375 C-0.92123047 0.61349609 -0.92123047 0.61349609 0 0 Z " fill="#978CA8" transform="translate(495,477)"/>
<path d="M0 0 C0.33 0.66 0.66 1.32 1 2 C1.99 2.33 2.98 2.66 4 3 C1.36 4.98 -1.28 6.96 -4 9 C-4.33 8.01 -4.66 7.02 -5 6 C-4.34 6 -3.68 6 -3 6 C-2.87625 5.38125 -2.7525 4.7625 -2.625 4.125 C-2 2 -2 2 0 0 Z " fill="#291648" transform="translate(142,112)"/>
<path d="M0 0 C-1.65 1.98 -3.3 3.96 -5 6 C-5.33 5.34 -5.66 4.68 -6 4 C-6.99 4 -7.98 4 -9 4 C-8 1 -8 1 -6.1875 -0.25 C-3.66056586 -1.11637742 -2.47778006 -0.88492145 0 0 Z " fill="#291F44" transform="translate(521,509)"/>
<path d="M0 0 C2.97 0.495 2.97 0.495 6 1 C6.33 1.99 6.66 2.98 7 4 C6.34 4 5.68 4 5 4 C5 3.34 5 2.68 5 2 C4.113125 2.474375 3.22625 2.94875 2.3125 3.4375 C-0.57042756 4.79737149 -2.87610623 5.54060386 -6 6 C-4.71034824 4.62437146 -3.37310707 3.29233607 -2 2 C-1.34 2 -0.68 2 0 2 C0 1.34 0 0.68 0 0 Z " fill="#ADA9C1" transform="translate(315,30)"/>
<path d="M0 0 C0.99 0.495 0.99 0.495 2 1 C2 2.98 2 4.96 2 7 C2.66 7 3.32 7 4 7 C4 10.3 4 13.6 4 17 C2.44534626 13.89069252 1.58404904 11.78638601 0.875 8.5 C0.70742188 7.7471875 0.53984375 6.994375 0.3671875 6.21875 C0 4 0 4 0 0 Z " fill="#695A7D" transform="translate(567,258)"/>
<path d="M0 0 C0.309375 0.639375 0.61875 1.27875 0.9375 1.9375 C1.8345163 3.93610821 1.8345163 3.93610821 3 5 C3.23427778 7.01594582 3.41336124 9.038474 3.5625 11.0625 C3.64628906 12.16722656 3.73007812 13.27195312 3.81640625 14.41015625 C3.87699219 15.26480469 3.93757812 16.11945313 4 17 C0.23389596 11.35084394 -0.22755952 6.59922601 0 0 Z " fill="#B7B1C0" transform="translate(589,250)"/>
<path d="M0 0 C0.66 0.33 1.32 0.66 2 1 C0.7251791 3.84383123 -0.45137078 6.13754018 -3 8 C-4.32 7.67 -5.64 7.34 -7 7 C-4.69 4.69 -2.38 2.38 0 0 Z " fill="#4C4169" transform="translate(125,102)"/>
<path d="M0 0 C0.66 0.33 1.32 0.66 2 1 C0.68 3.31 -0.64 5.62 -2 8 C-3.9375 7.6875 -3.9375 7.6875 -6 7 C-6.33 6.01 -6.66 5.02 -7 4 C-5.824375 3.8453125 -5.824375 3.8453125 -4.625 3.6875 C-1.66954819 3.22404978 -1.66954819 3.22404978 0 0 Z " fill="#3B2958" transform="translate(556,458)"/>
<path d="M0 0 C2.00720923 0.28674418 4.0085944 0.61866701 6 1 C3.42215154 3.64752004 1.08351902 5.94432065 -2 8 C-2 7.01 -2 6.02 -2 5 C-1.34 5 -0.68 5 0 5 C-0.2784375 4.0409375 -0.2784375 4.0409375 -0.5625 3.0625 C-0.7790625 2.0415625 -0.7790625 2.0415625 -1 1 C-0.67 0.67 -0.34 0.34 0 0 Z " fill="#2E1750" transform="translate(267,66)"/>
<path d="M0 0 C0.33 0.66 0.66 1.32 1 2 C0.0625 4.125 0.0625 4.125 -1 6 C-1.99 6 -2.98 6 -4 6 C-4 6.99 -4 7.98 -4 9 C-5.65 9.66 -7.3 10.32 -9 11 C-8.21654285 9.82780457 -7.42297164 8.66236332 -6.625 7.5 C-6.18414062 6.8503125 -5.74328125 6.200625 -5.2890625 5.53125 C-4.86367187 5.0259375 -4.43828125 4.520625 -4 4 C-3.34 4 -2.68 4 -2 4 C-1.34 2.68 -0.68 1.36 0 0 Z " fill="#5C5179" transform="translate(130,256)"/>
<path d="M0 0 C0.66 0.33 1.32 0.66 2 1 C1.01 2.485 1.01 2.485 0 4 C1.32 4.33 2.64 4.66 4 5 C-0.455 5.495 -0.455 5.495 -5 6 C-3.86695008 2.60085025 -2.87481525 1.94745549 0 0 Z " fill="#B3ABBD" transform="translate(165,503)"/>
<path d="M0 0 C0.66 0 1.32 0 2 0 C1.67 1.65 1.34 3.3 1 5 C0.34 5 -0.32 5 -1 5 C-1.268125 5.61875 -1.53625 6.2375 -1.8125 6.875 C-3 9 -3 9 -6 11 C-4.18690997 7.22272911 -2.0926741 3.62730178 0 0 Z " fill="#A7A2B0" transform="translate(549,471)"/>
<path d="M0 0 C-5.30039859 1.66554027 -10.47293087 3.27275406 -16 4 C-11.11246328 -0.59132237 -6.45772812 -1.85112119 0 0 Z " fill="#7E728E" transform="translate(235,473)"/>
<path d="M0 0 C0.33 1.32 0.66 2.64 1 4 C-1.97 6.475 -1.97 6.475 -5 9 C-5.66 8.67 -6.32 8.34 -7 8 C-5.71937515 6.2925002 -4.38232443 4.62626404 -3 3 C-2.34 3 -1.68 3 -1 3 C-0.67 2.01 -0.34 1.02 0 0 Z " fill="#544771" transform="translate(159,223)"/>
<path d="M0 0 C1.47769949 2.95539898 0.56171816 5.05125224 -0.25390625 8.15625 C-1 10 -1 10 -3.125 11.5 C-3.74375 11.665 -4.3625 11.83 -5 12 C-3.68938409 7.76570244 -2.05643741 3.92592596 0 0 Z " fill="#9B93A9" transform="translate(81,197)"/>
<path d="M0 0 C0 3.99476331 -1.28869085 5.1421336 -4 8 C-6.75 9.3125 -6.75 9.3125 -9 10 C-6.43571997 5.82117329 -3.98069267 2.87494471 0 0 Z " fill="#B4B0C1" transform="translate(139,120)"/>
<path d="M0 0 C0.33 0.66 0.66 1.32 1 2 C-2.44615385 7.78461538 -2.44615385 7.78461538 -5.25 8.875 C-5.8275 8.91625 -6.405 8.9575 -7 9 C-6.67 8.01 -6.34 7.02 -6 6 C-5.34 6 -4.68 6 -4 6 C-3.67 5.01 -3.34 4.02 -3 3 C-2.34 3 -1.68 3 -1 3 C-0.67 2.01 -0.34 1.02 0 0 Z " fill="#564A72" transform="translate(92,299)"/>
<path d="M0 0 C7.38461538 -0.36923077 7.38461538 -0.36923077 10.5 1.5 C10.995 1.995 11.49 2.49 12 3 C9.36 3 6.72 3 4 3 C4 2.34 4 1.68 4 1 C2.68 0.67 1.36 0.34 0 0 Z " fill="#A29AAC" transform="translate(348,476)"/>
<path d="M0 0 C2.31 0 4.62 0 7 0 C6.67 0.66 6.34 1.32 6 2 C3.49609375 2.6328125 3.49609375 2.6328125 0.4375 3.125 C-1.08037109 3.37636719 -1.08037109 3.37636719 -2.62890625 3.6328125 C-3.80259766 3.81457031 -3.80259766 3.81457031 -5 4 C-4.67 3.34 -4.34 2.68 -4 2 C-2.68 2 -1.36 2 0 2 C0 1.34 0 0.68 0 0 Z " fill="#D0CBD8" transform="translate(477,429)"/>
<path d="M0 0 C1.33332095 2.6666419 0.67102033 4.16680303 0 7 C-0.66 7 -1.32 7 -2 7 C-2.33 8.98 -2.66 10.96 -3 13 C-4.10096216 9.73381227 -3.9223497 7.98446051 -2.625 4.8125 C-2.34914063 4.11769531 -2.07328125 3.42289063 -1.7890625 2.70703125 C-1 1 -1 1 0 0 Z " fill="#B6B0BE" transform="translate(71,222)"/>
<path d="M0 0 C0.66 0 1.32 0 2 0 C2.70226141 1.24176695 3.38629109 2.49385599 4.0625 3.75 C4.44535156 4.44609375 4.82820313 5.1421875 5.22265625 5.859375 C6.1312406 8.36140628 5.88336837 9.5332355 5 12 C4.16440201 10.18854294 3.33157951 8.37580533 2.5 6.5625 C2.0359375 5.55316406 1.571875 4.54382813 1.09375 3.50390625 C0 1 0 1 0 0 Z " fill="#CFCBD5" transform="translate(326,168)"/>
<path d="M0 0 C0.66 0.33 1.32 0.66 2 1 C-0.06756277 3.7972908 -1.14440371 4.02692273 -4.6875 4.6875 C-5.780625 4.790625 -6.87375 4.89375 -8 5 C-6.35197949 1.70395897 -3.32254422 1.22409524 0 0 Z " fill="#B5B2BF" transform="translate(416,581)"/>
<path d="M0 0 C0 3.63327194 -0.95586411 5.04735927 -3 8 C-3.99 8.66 -4.98 9.32 -6 10 C-4.6302836 6.00499382 -2.74277578 3.19990508 0 0 Z " fill="#C9C8CD" transform="translate(523,506)"/>
<path d="M0 0 C0.66 0.33 1.32 0.66 2 1 C0.7260411 3.03833424 -0.61061923 5.03852126 -2 7 C-2.66 7 -3.32 7 -4 7 C-3.6875 4.625 -3.6875 4.625 -3 2 C-2.01 1.34 -1.02 0.68 0 0 Z " fill="#E5E1E9" transform="translate(490,483)"/>
<path d="M0 0 C1.24546405 2.49092811 0.7767578 3.41080733 0 6 C-0.66 6 -1.32 6 -2 6 C-2.66 7.65 -3.32 9.3 -4 11 C-4.33 10.34 -4.66 9.68 -5 9 C-4.2578125 7.08984375 -4.2578125 7.08984375 -3.125 4.9375 C-2.75632812 4.22464844 -2.38765625 3.51179688 -2.0078125 2.77734375 C-1 1 -1 1 0 0 Z " fill="#A9A4B3" transform="translate(562,450)"/>
<path d="M0 0 C0.33 1.32 0.66 2.64 1 4 C-1.4375 6.75 -1.4375 6.75 -4 9 C-4.66 8.67 -5.32 8.34 -6 8 C-4.02 5.36 -2.04 2.72 0 0 Z " fill="#ACA8BA" transform="translate(109,153)"/>
<path d="M0 0 C0.66 0.99 1.32 1.98 2 3 C0.35 4.32 -1.3 5.64 -3 7 C-3.66 6.34 -4.32 5.68 -5 5 C-3.35 3.35 -1.7 1.7 0 0 Z " fill="#443965" transform="translate(383,144)"/>
<path d="M0 0 C0 3 0 3 -2.5 5.6875 C-3.325 6.450625 -4.15 7.21375 -5 8 C-5.66 7.67 -6.32 7.34 -7 7 C-4.66666667 4.66666667 -2.33333333 2.33333333 0 0 Z " fill="#564C75" transform="translate(309,126)"/>
<path d="M0 0 C-1.485 2.475 -1.485 2.475 -3 5 C-3.33 4.34 -3.66 3.68 -4 3 C-4.66 3 -5.32 3 -6 3 C-6 2.01 -6 1.02 -6 0 C-3 -1 -3 -1 0 0 Z " fill="#291746" transform="translate(548,474)"/>
<path d="M0 0 C0.33 0.99 0.66 1.98 1 3 C-0.65 4.65 -2.3 6.3 -4 8 C-4.66 7.67 -5.32 7.34 -6 7 C-2.25 1.125 -2.25 1.125 0 0 Z " fill="#695E81" transform="translate(227,211)"/>
<path d="M0 0 C-1.75 2.0625 -1.75 2.0625 -4 4 C-6.25 3.75 -6.25 3.75 -8 3 C-8 2.34 -8 1.68 -8 1 C-2.25 -1.125 -2.25 -1.125 0 0 Z " fill="#8A7B9B" transform="translate(366,203)"/>
<path d="M0 0 C0.66 0 1.32 0 2 0 C2.33 1.32 2.66 2.64 3 4 C4.65 4.33 6.3 4.66 8 5 C7.67 5.66 7.34 6.32 7 7 C5.35 6.67 3.7 6.34 2 6 C1.34 4.02 0.68 2.04 0 0 Z " fill="#BAB5C7" transform="translate(351,162)"/>
<path d="M0 0 C0.99 0.33 1.98 0.66 3 1 C1.515 3.475 1.515 3.475 0 6 C-0.33 5.34 -0.66 4.68 -1 4 C-1.66 3.67 -2.32 3.34 -3 3 C-2.01 2.01 -1.02 1.02 0 0 Z " fill="#291447" transform="translate(117,138)"/>
<path d="M0 0 C0.33 0.66 0.66 1.32 1 2 C0.34 2 -0.32 2 -1 2 C-1.33 3.32 -1.66 4.64 -2 6 C-3.65 6.33 -5.3 6.66 -7 7 C-6.34 6.01 -5.68 5.02 -5 4 C-4.34 4 -3.68 4 -3 4 C-2.67 3.01 -2.34 2.02 -2 1 C-1.34 0.67 -0.68 0.34 0 0 Z " fill="#60567B" transform="translate(261,50)"/>
<path d="M0 0 C2.64 0 5.28 0 8 0 C8 0.66 8 1.32 8 2 C6.02 2.66 4.04 3.32 2 4 C2 3.01 2 2.02 2 1 C1.34 0.67 0.68 0.34 0 0 Z " fill="#F1EFF2" transform="translate(469,429)"/>
<path d="M0 0 C0.33 0.66 0.66 1.32 1 2 C-0.4375 4.625 -0.4375 4.625 -2 7 C-2.99 6.67 -3.98 6.34 -5 6 C-4.67 5.34 -4.34 4.68 -4 4 C-3.34 4 -2.68 4 -2 4 C-1.34 2.68 -0.68 1.36 0 0 Z " fill="#5D507B" transform="translate(111,277)"/>
<path d="M0 0 C0.99 0.33 1.98 0.66 3 1 C2.34 2.32 1.68 3.64 1 5 C-0.32 4.34 -1.64 3.68 -3 3 C-2.01 2.01 -1.02 1.02 0 0 Z " fill="#22143C" transform="translate(107,150)"/>
<path d="M0 0 C1.65 0.33 3.3 0.66 5 1 C3.35 2.65 1.7 4.3 0 6 C-1.24546405 3.50907189 -0.7767578 2.58919267 0 0 Z " fill="#5A5072" transform="translate(156,102)"/>
</svg>
